<svg xmlns="http://www.w3.org/2000/svg" viewBox="0 0 172.3 451.29"><defs><style>.cls-1,.cls-4{fill:#fefefe;stroke-miterlimit:10;}.cls-1{stroke:#fff;}.cls-2{fill:#020202;}.cls-3{fill:#fff;}.cls-4{stroke:#000;stroke-width:2px;}</style></defs><g id="Camada_2" data-name="Camada 2"><g id="Camada_1-2" data-name="Camada 1"><path class="cls-1" d="M49.92,285.75c.51,1.24.06,2.35-.19,3.48-2.57,11.34-5,22.73-7.72,34-2.41,9.84.18,17.89,7.32,25,12.2,12.07,24.11,24.43,36.26,36.54A21.71,21.71,0,0,1,91,393.55q7.62,22.92,15.42,45.79c3.11,9.09,10.48,13.28,18.48,10.69,8.43-2.74,12.17-11,9.06-20.18-5.49-16.2-11.14-32.34-16.52-48.57a37.73,37.73,0,0,0-9-14.77c-6.16-6.32-12.12-12.85-18.43-19-2.59-2.53-3.25-4.7-2.06-8.26,4.84-14.49,9.3-29.1,13.93-43.66.36-1.16.13-2.69,1.92-3.34,4.5,7.49,10.53,13.41,19.24,15.54a198.25,198.25,0,0,0,30.55,4.65c7.18.6,12.92-4.82,13.55-11.81s-3.67-12.06-11.3-13.24c-7.07-1.09-14.14-2.23-21.25-3.07a11.94,11.94,0,0,1-9.29-5.69c-5.89-8.88-12-17.58-19.48-25.29a19.42,19.42,0,0,0-11.28-5.79c-17.43-2.91-33.68-.65-48.36,9.89-3.5,2.51-7.43,4.4-11.19,6.54a40.63,40.63,0,0,0-15.78,16.27q-6.55,12-13,24.15c-4.27,8-2.65,15.35,4.14,19s14.28.88,18.62-7.16q6.17-11.4,12.23-22.85C43.19,289.7,45.8,286.9,49.92,285.75ZM86.46.51Q51.23.51,16,.53C8.88.54,5.27,4.2,5.19,11.31c-.07,6.83,0,13.66,0,20.49,0,9.24,3,12.31,12.25,12.33,16.66,0,33.32.06,50-.05,2.7,0,3.9.37,4.39,3.51A14.63,14.63,0,0,0,86.26,60.24a14.42,14.42,0,0,0,14.16-12.38c.55-3.41,1.94-3.79,4.78-3.77,16.49.1,33,.07,49.48,0,9.19,0,12.43-3.21,12.45-12.22q0-9.5,0-19c0-9.21-3.15-12.4-12.2-12.41Q120.68.5,86.46.51Zm30.69,211.43a28.43,28.43,0,1,0-28.52,28.49A28.56,28.56,0,0,0,117.15,211.94ZM47.21,366.63l1.34-1.28c-.24.22-.6.4-.71.68-8.1,21.56-16.33,43.08-24.2,64.73a14.36,14.36,0,0,0,8.82,18.63c8.13,2.74,15.67-.78,18.8-9.15,6.15-16.46,12.08-33,18.2-49.47.72-1.92,1-3.35-.71-4.86C61.53,379.52,54.38,373.06,47.21,366.63Z"/><path class="cls-2" d="M49.92,285.75c-4.12,1.15-6.73,3.95-8.67,7.6Q35.19,304.81,29,316.2c-4.34,8-11.72,10.86-18.62,7.16s-8.41-10.94-4.14-19,8.62-16.12,13-24.15A40.63,40.63,0,0,1,35,264c3.76-2.14,7.69-4,11.19-6.54,14.68-10.54,30.93-12.8,48.36-9.89a19.42,19.42,0,0,1,11.28,5.79c7.44,7.71,13.59,16.41,19.48,25.29a11.94,11.94,0,0,0,9.29,5.69c7.11.84,14.18,2,21.25,3.07,7.63,1.18,11.93,6.27,11.3,13.24s-6.37,12.41-13.55,11.81a198.25,198.25,0,0,1-30.55-4.65c-8.71-2.13-14.74-8-19.24-15.54-1.79.65-1.56,2.18-1.92,3.34-4.63,14.56-9.09,29.17-13.93,43.66-1.19,3.56-.53,5.73,2.06,8.26,6.31,6.17,12.27,12.7,18.43,19a37.73,37.73,0,0,1,9,14.77c5.38,16.23,11,32.37,16.52,48.57,3.11,9.21-.63,17.44-9.06,20.18-8,2.59-15.37-1.6-18.48-10.69Q98.63,416.48,91,393.55a21.71,21.71,0,0,0-5.42-8.78c-12.15-12.11-24.06-24.47-36.26-36.54-7.14-7.07-9.73-15.12-7.32-25,2.76-11.31,5.15-22.7,7.72-34C50,288.1,50.43,287,49.92,285.75Z"/><path class="cls-2" d="M86.46.51q34.23,0,68.47,0c9,0,12.18,3.2,12.2,12.41q0,9.49,0,19c0,9-3.26,12.21-12.45,12.22-16.5,0-33,.06-49.48,0-2.84,0-4.23.36-4.78,3.77A14.42,14.42,0,0,1,86.26,60.24,14.63,14.63,0,0,1,71.79,47.59c-.49-3.14-1.69-3.52-4.39-3.51-16.65.11-33.31.08-50,.05C8.21,44.11,5.19,41,5.18,31.8c0-6.83-.06-13.66,0-20.49C5.27,4.2,8.88.54,16,.53Q51.22.45,86.46.51Z"/><path class="cls-2" d="M117.15,211.94a28.43,28.43,0,0,1-56.86.23,28.43,28.43,0,1,1,56.86-.23Z"/><path class="cls-2" d="M47.21,366.63c7.17,6.43,14.32,12.89,21.54,19.28,1.7,1.51,1.43,2.94.71,4.86-6.12,16.47-12,33-18.2,49.47-3.13,8.37-10.67,11.89-18.8,9.15a14.36,14.36,0,0,1-8.82-18.63c7.87-21.65,16.1-43.17,24.2-64.73.11-.28.47-.46.71-.68Z"/><path class="cls-3" d="M48.32,21.19a8,8,0,0,1-.45,2.75,6.25,6.25,0,0,1-1.25,2.13,5.48,5.48,0,0,1-1.94,1.37,6.38,6.38,0,0,1-2.51.48H37.52V14.45h4.65a6.21,6.21,0,0,1,2.51.49,5.48,5.48,0,0,1,1.94,1.37,6.11,6.11,0,0,1,1.25,2.12A8.07,8.07,0,0,1,48.32,21.19Zm-1.92,0a7.41,7.41,0,0,0-.3-2.2,4.77,4.77,0,0,0-.85-1.65,3.71,3.71,0,0,0-1.33-1A4.11,4.11,0,0,0,42.17,16H39.39V26.42h2.78a4.12,4.12,0,0,0,1.75-.36,3.68,3.68,0,0,0,1.33-1,4.77,4.77,0,0,0,.85-1.65A7.46,7.46,0,0,0,46.4,21.19Z"/><path class="cls-3" d="M58.37,14.45V16h-6v4.42h4.83v1.46H52.38v4.56h6v1.51H50.5V14.45Z"/><path class="cls-3" d="M67.23,16.57a.47.47,0,0,1-.42.29.62.62,0,0,1-.36-.16c-.14-.11-.31-.22-.51-.35a5,5,0,0,0-.73-.35,3.12,3.12,0,0,0-1-.16,2.93,2.93,0,0,0-1,.16,2.09,2.09,0,0,0-.71.44,1.77,1.77,0,0,0-.42.66,2.15,2.15,0,0,0-.15.8,1.63,1.63,0,0,0,.26.94,2.62,2.62,0,0,0,.69.63,5.45,5.45,0,0,0,1,.45l1.11.4c.37.14.74.3,1.1.47a3.69,3.69,0,0,1,1,.66,2.76,2.76,0,0,1,.69,1,3.43,3.43,0,0,1,.26,1.4,4.8,4.8,0,0,1-.28,1.67,4.27,4.27,0,0,1-.84,1.35,4,4,0,0,1-1.35.9,4.73,4.73,0,0,1-1.82.33,5.43,5.43,0,0,1-2.29-.48,5.32,5.32,0,0,1-1.76-1.29l.54-.88a.77.77,0,0,1,.18-.18.49.49,0,0,1,.25-.07.8.8,0,0,1,.44.21,5.74,5.74,0,0,0,.6.47,4.55,4.55,0,0,0,.86.46,3.21,3.21,0,0,0,1.22.21,2.85,2.85,0,0,0,1-.18,2.2,2.2,0,0,0,.79-.49,2.16,2.16,0,0,0,.49-.76,2.86,2.86,0,0,0,.17-1,1.79,1.79,0,0,0-.26-1,2.39,2.39,0,0,0-.69-.65,4.82,4.82,0,0,0-1-.44l-1.11-.37a11.55,11.55,0,0,1-1.1-.45,3.47,3.47,0,0,1-1-.66,2.87,2.87,0,0,1-.69-1,3.84,3.84,0,0,1-.26-1.5,3.69,3.69,0,0,1,.27-1.38,3.35,3.35,0,0,1,.77-1.19,3.69,3.69,0,0,1,1.25-.83,4.38,4.38,0,0,1,1.71-.31,5.43,5.43,0,0,1,2,.35,4.39,4.39,0,0,1,1.56,1Z"/><path class="cls-3" d="M72,26.35h5.2v1.57H70.13V14.45H72Z"/><path class="cls-3" d="M81.12,27.92H79.25V14.45h1.87Z"/><path class="cls-3" d="M92.88,27.71a7.76,7.76,0,0,1-2.41.36,7.56,7.56,0,0,1-2.84-.51,6,6,0,0,1-2.15-1.41A6.11,6.11,0,0,1,84.1,24a7.82,7.82,0,0,1-.48-2.79,8.12,8.12,0,0,1,.47-2.81,6.14,6.14,0,0,1,1.33-2.17,5.89,5.89,0,0,1,2.1-1.41,7.13,7.13,0,0,1,2.75-.5,9.16,9.16,0,0,1,1.44.11,7.11,7.11,0,0,1,1.23.34,5.67,5.67,0,0,1,1,.54,6.76,6.76,0,0,1,.89.71l-.52.84a.53.53,0,0,1-.33.25.52.52,0,0,1-.44-.09c-.16-.09-.33-.19-.52-.32a3.8,3.8,0,0,0-.67-.36,5.4,5.4,0,0,0-.93-.29,5.73,5.73,0,0,0-1.26-.12,5,5,0,0,0-1.93.36,4.15,4.15,0,0,0-1.48,1.06A4.67,4.67,0,0,0,85.86,19a6.81,6.81,0,0,0-.33,2.19,6.92,6.92,0,0,0,.34,2.26,4.85,4.85,0,0,0,1,1.69A4.41,4.41,0,0,0,88.4,26.2a5.39,5.39,0,0,0,2,.36,5.63,5.63,0,0,0,1.54-.2,6.61,6.61,0,0,0,1.33-.56V22.85H91.35a.44.44,0,0,1-.3-.11.33.33,0,0,1-.11-.25V21.43h4v5.19A7,7,0,0,1,92.88,27.71Z"/><path class="cls-3" d="M108.16,27.92h-1.45a.61.61,0,0,1-.39-.12.72.72,0,0,1-.23-.31l-1.15-3.24H99.38l-1.14,3.23a.68.68,0,0,1-.23.31.62.62,0,0,1-.4.13H96.16l5.06-13.47h1.89Zm-8.31-5h4.62l-1.91-5.43a5.91,5.91,0,0,1-.21-.57c-.06-.22-.13-.45-.19-.71q-.1.39-.21.72c-.06.22-.13.41-.19.57Z"/><path class="cls-3" d="M120.45,21.19a8.22,8.22,0,0,1-.44,2.75,6.27,6.27,0,0,1-1.26,2.13,5.44,5.44,0,0,1-1.93,1.37,6.38,6.38,0,0,1-2.51.48h-4.66V14.45h4.66a6.21,6.21,0,0,1,2.51.49,5.44,5.44,0,0,1,1.93,1.37A6.13,6.13,0,0,1,120,18.43,8.32,8.32,0,0,1,120.45,21.19Zm-1.92,0a7.42,7.42,0,0,0-.29-2.2,5,5,0,0,0-.85-1.65,3.74,3.74,0,0,0-1.34-1,4.1,4.1,0,0,0-1.74-.35h-2.78V26.42h2.78a4.1,4.1,0,0,0,1.74-.36,3.71,3.71,0,0,0,1.34-1,5,5,0,0,0,.85-1.65A7.47,7.47,0,0,0,118.53,21.19Z"/><path class="cls-3" d="M134.32,21.19a8.17,8.17,0,0,1-.45,2.77,6.5,6.5,0,0,1-1.26,2.18,5.78,5.78,0,0,1-2,1.42,6.56,6.56,0,0,1-5.07,0,5.72,5.72,0,0,1-2-1.42A6.36,6.36,0,0,1,122.34,24a8.17,8.17,0,0,1-.45-2.77,8.27,8.27,0,0,1,.45-2.78,6.45,6.45,0,0,1,1.27-2.18,5.75,5.75,0,0,1,2-1.43,6.68,6.68,0,0,1,5.07,0,5.8,5.8,0,0,1,2,1.43,6.6,6.6,0,0,1,1.26,2.18A8.27,8.27,0,0,1,134.32,21.19Zm-1.91,0a7.53,7.53,0,0,0-.3-2.21,4.76,4.76,0,0,0-.87-1.66,3.64,3.64,0,0,0-1.35-1.05,4.58,4.58,0,0,0-3.56,0A3.75,3.75,0,0,0,125,17.32a4.74,4.74,0,0,0-.86,1.66,8,8,0,0,0,0,4.42,4.93,4.93,0,0,0,.86,1.66,3.84,3.84,0,0,0,1.36,1,4.58,4.58,0,0,0,3.56,0,3.72,3.72,0,0,0,1.35-1,4.94,4.94,0,0,0,.87-1.66A7.57,7.57,0,0,0,132.41,21.19Z"/></g><g id="Camada_2-2" data-name="Camada 2"><path class="cls-4" d="M80.2,160c36.23,0,65.28-11.71,86.73-32.5,5-4.9,5.78-10.63,1.89-14.94-4.07-4.5-9.84-4.17-15.35.89-39.7,36.47-94.89,36.44-134.72-.08-5.35-4.91-10.81-5.3-15-1.08S.18,122.58,5.48,127.58C28.12,149,55.12,159.61,80.2,160Z"/><path class="cls-4" d="M86.07,126a77.85,77.85,0,0,0,18.34-2,80.72,80.72,0,0,0,39.29-21.47c3-2.91,4.31-6.35,3-10.41a9.36,9.36,0,0,0-7.94-6.71c-4-.65-6.87,1.61-9.69,4.14C111.33,105.38,90.79,110,67.88,103.93A58.83,58.83,0,0,1,41.5,88.47C38,85,33.74,84.79,29.55,87.07c-3.81,2.08-4.93,5.71-4.25,9.83.49,2.94,2.55,5,4.64,6.92C45.75,118.58,64.62,125.56,86.07,126Z"/><path class="cls-4" d="M86.26,92.25c12.72,0,23.67-4.53,33.09-12.93C124.18,75,124.81,69,121,64.81s-9.41-4.17-14.25-.19C93.27,75.74,78.94,75.8,65.7,64.79c-5.06-4.21-10.87-4.13-14.58.22-3.57,4.17-3,9.89,1.64,14.16A47.66,47.66,0,0,0,86.26,92.25Z"/></g></g></svg>