<svg xmlns="http://www.w3.org/2000/svg" viewBox="0 0 170.3 450.29"><defs><style>.cls-1{fill:#020202;}.cls-2{fill:#fff;}</style></defs><g id="Camada_2" data-name="Camada 2"><g id="Camada_1-2" data-name="Camada 1"><path class="cls-1" d="M48.91,285.25c-4.12,1.15-6.73,3.95-8.66,7.6Q34.19,304.31,28,315.7c-4.35,8-11.72,10.86-18.62,7.16s-8.41-10.94-4.14-19,8.61-16.12,13-24.15A40.65,40.65,0,0,1,34,263.46c3.75-2.14,7.69-4,11.18-6.54,14.69-10.54,30.94-12.8,48.37-9.89a19.42,19.42,0,0,1,11.28,5.79c7.43,7.71,13.59,16.41,19.48,25.29a11.92,11.92,0,0,0,9.29,5.69c7.1.84,14.17,2,21.24,3.07,7.63,1.18,11.94,6.27,11.31,13.24s-6.37,12.41-13.55,11.81a198.07,198.07,0,0,1-30.55-4.65c-8.71-2.13-14.74-8-19.24-15.54-1.79.65-1.56,2.18-1.93,3.34-4.62,14.56-9.09,29.17-13.92,43.66-1.19,3.56-.53,5.73,2.06,8.26,6.3,6.17,12.26,12.7,18.43,19a37.7,37.7,0,0,1,9,14.77c5.39,16.23,11,32.37,16.52,48.57,3.12,9.21-.63,17.44-9.06,20.18-8,2.59-15.37-1.6-18.47-10.69Q97.63,416,90,393.05a21.58,21.58,0,0,0-5.41-8.78c-12.15-12.11-24.07-24.47-36.26-36.54-7.14-7.07-9.73-15.12-7.33-25,2.76-11.31,5.16-22.7,7.72-34C49,287.6,49.43,286.49,48.91,285.25Z"/><path class="cls-1" d="M85.45,0h68.47c9.06,0,12.19,3.2,12.21,12.41q0,9.49,0,19c0,9-3.26,12.21-12.46,12.22-16.49,0-33,.06-49.47,0-2.85,0-4.24.36-4.78,3.77A14.43,14.43,0,0,1,85.26,59.74,14.65,14.65,0,0,1,70.78,47.09C70.3,44,69.1,43.57,66.4,43.58c-16.66.11-33.32.08-50,.05C7.2,43.61,4.19,40.54,4.18,31.3c0-6.83-.06-13.66,0-20.49C4.26,3.7,7.87,0,15,0Q50.22,0,85.45,0Z"/><path class="cls-1" d="M79.2,161c-25.08-.43-52.08-11-74.72-32.45-5.3-5-5.92-11-1.73-15.27s9.65-3.82,15,1.09c39.83,36.52,95,36.55,134.72.08,5.51-5.06,11.28-5.4,15.35-.89,3.89,4.31,3.16,10-1.89,14.93C144.48,149.27,115.43,161,79.2,161Z"/><path class="cls-1" d="M85.07,127c-21.45-.44-40.32-7.42-56.13-22.19-2.09-2-4.15-4-4.64-6.91-.68-4.12.44-7.75,4.25-9.83,4.19-2.28,8.42-2.08,12,1.4a58.92,58.92,0,0,0,26.38,15.46c22.91,6.08,43.45,1.44,61.23-14.44,2.82-2.52,5.65-4.78,9.69-4.14A9.39,9.39,0,0,1,145.74,93c1.27,4-.05,7.5-3,10.41a80.72,80.72,0,0,1-39.29,21.47A77.85,77.85,0,0,1,85.07,127Z"/><path class="cls-1" d="M116.14,211.44a28.43,28.43,0,0,1-56.85.23,28.43,28.43,0,1,1,56.85-.23Z"/><path class="cls-1" d="M46.21,366.13c7.17,6.43,14.32,12.89,21.53,19.28,1.7,1.51,1.43,2.94.72,4.86-6.12,16.47-12,33-18.2,49.47-3.13,8.37-10.67,11.89-18.8,9.15a14.37,14.37,0,0,1-8.83-18.63c7.88-21.65,16.1-43.17,24.21-64.73.11-.28.47-.46.71-.68Z"/><path class="cls-1" d="M85.26,93.2a47.7,47.7,0,0,1-33.5-13.08c-4.61-4.27-5.21-10-1.64-14.16,3.71-4.35,9.52-4.44,14.58-.22,13.24,11,27.57,11,41.08-.17,4.84-4,10.56-3.91,14.25.18s3.15,10.21-1.68,14.52C108.93,88.67,98,93.22,85.26,93.2Z"/><path class="cls-2" d="M54.82,25.85H60v1.57H53V14h1.87Z"/><path class="cls-2" d="M63.94,27.42H62.08V14h1.86Z"/><path class="cls-2" d="M75.71,27.21a7.82,7.82,0,0,1-2.42.36,7.51,7.51,0,0,1-2.83-.51,6,6,0,0,1-2.16-1.41,6.08,6.08,0,0,1-1.37-2.17,7.61,7.61,0,0,1-.49-2.79,8.12,8.12,0,0,1,.47-2.81,6.28,6.28,0,0,1,1.33-2.17,5.89,5.89,0,0,1,2.1-1.41,7.14,7.14,0,0,1,2.76-.5,9.16,9.16,0,0,1,1.44.11,7,7,0,0,1,1.22.34,5.76,5.76,0,0,1,1,.54,6.67,6.67,0,0,1,.88.71l-.52.84a.48.48,0,0,1-.33.25.53.53,0,0,1-.44-.09c-.16-.09-.33-.19-.52-.32a3.8,3.8,0,0,0-.67-.36,5.56,5.56,0,0,0-.92-.29A5.86,5.86,0,0,0,73,15.41a5,5,0,0,0-1.94.36,4.11,4.11,0,0,0-1.47,1.06,4.69,4.69,0,0,0-.94,1.67,6.81,6.81,0,0,0-.33,2.19A7.2,7.2,0,0,0,68.69,23a4.72,4.72,0,0,0,1,1.69,4.38,4.38,0,0,0,1.54,1.06,5.42,5.42,0,0,0,2,.36,5.53,5.53,0,0,0,1.54-.2,6.38,6.38,0,0,0,1.33-.56V22.35H74.18a.41.41,0,0,1-.3-.11.3.3,0,0,1-.12-.25V20.93h4v5.19A7.26,7.26,0,0,1,75.71,27.21Z"/><path class="cls-2" d="M91,27.42H89.54a.62.62,0,0,1-.4-.12.72.72,0,0,1-.23-.31l-1.15-3.24H82.2L81.07,27a.71.71,0,0,1-.24.31.6.6,0,0,1-.4.13H79L84,14h1.9Zm-8.3-5h4.61L85.38,17c-.07-.16-.13-.35-.2-.57S85,16,85,15.71c-.07.26-.13.5-.2.72s-.14.41-.2.57Z"/><path class="cls-2" d="M103.28,20.69a8,8,0,0,1-.45,2.75,6.25,6.25,0,0,1-1.25,2.13,5.48,5.48,0,0,1-1.94,1.37,6.35,6.35,0,0,1-2.51.48H92.48V14h4.65a6.18,6.18,0,0,1,2.51.49,5.48,5.48,0,0,1,1.94,1.37,6.11,6.11,0,0,1,1.25,2.12A8.07,8.07,0,0,1,103.28,20.69Zm-1.92,0a7.41,7.41,0,0,0-.3-2.2,4.77,4.77,0,0,0-.85-1.65,3.71,3.71,0,0,0-1.33-1,4.11,4.11,0,0,0-1.75-.35H94.35V25.92h2.78a4.12,4.12,0,0,0,1.75-.36,3.68,3.68,0,0,0,1.33-1,4.77,4.77,0,0,0,.85-1.65A7.46,7.46,0,0,0,101.36,20.69Z"/><path class="cls-2" d="M117.14,20.69a8.17,8.17,0,0,1-.45,2.77,6.34,6.34,0,0,1-1.26,2.18,5.59,5.59,0,0,1-2,1.42,6.12,6.12,0,0,1-2.53.51,6.2,6.2,0,0,1-2.54-.51,5.81,5.81,0,0,1-2-1.42,6.52,6.52,0,0,1-1.27-2.18,8.17,8.17,0,0,1-.45-2.77,8.27,8.27,0,0,1,.45-2.78,6.62,6.62,0,0,1,1.27-2.18,5.84,5.84,0,0,1,2-1.43,6.19,6.19,0,0,1,2.54-.5,6.11,6.11,0,0,1,2.53.5,5.61,5.61,0,0,1,2,1.43,6.43,6.43,0,0,1,1.26,2.18A8.27,8.27,0,0,1,117.14,20.69Zm-1.91,0a7.53,7.53,0,0,0-.3-2.21,4.74,4.74,0,0,0-.86-1.66,3.67,3.67,0,0,0-1.36-1.05,4.56,4.56,0,0,0-3.55,0,3.67,3.67,0,0,0-1.36,1.05,4.6,4.6,0,0,0-.87,1.66,8.29,8.29,0,0,0,0,4.42,4.77,4.77,0,0,0,.87,1.66,3.75,3.75,0,0,0,1.36,1,4.56,4.56,0,0,0,3.55,0,3.75,3.75,0,0,0,1.36-1,4.93,4.93,0,0,0,.86-1.66A7.57,7.57,0,0,0,115.23,20.69Z"/></g></g></svg>