<svg id="8f969b12-8038-4be8-81f3-ffa4eba4c761" data-name="Layer 1" xmlns="http://www.w3.org/2000/svg" xmlns:xlink="http://www.w3.org/1999/xlink" viewBox="0 0 406.85 668.33"><defs><style>.fe587bd1-071e-493f-8939-9cd3d2ab722c{fill:#7c5f28;}.\36 47da408-c8eb-4f0d-91e1-d1b0191385b6{fill:#7c6028;}.\31 b22ee03-09ca-435e-95fe-e0ba2aca5f46{fill:#74541f;}.\39 52e329b-0227-40e4-8c2c-fda913fea178{fill:#302312;}.\31 6281b11-2ab5-4f9a-abcb-f7f77a1e2fb2{fill:#0f0a02;}.eea00e4d-f33f-445c-bbeb-10e6691b3e56{fill:#130d05;}.\36 becd721-37b0-470e-b439-3f25088d3935{fill:#2c2010;}.\36 850a3a7-21ff-40da-a8b2-d951184b2f49{fill:#1f1509;}.\38 5b3f5dd-37d6-4cc0-b4ea-fa92e4095207{fill:#36250e;}.\36 717b84f-ef2e-47cc-b4c8-187e1aa9168a{fill:#070502;}.\39 b1b4452-5e95-4ffe-bd99-378bc3583856{fill:#26180a;}.\36 d89a3be-7ef2-43b2-beed-dd89032bb237{fill:#725421;}.bca62ee0-0125-4484-b875-9df17365dba0{fill:#603715;}.\33 d6041e0-0a5c-4742-bde6-d0f14a3766d5{fill:#a4dfdf;opacity:0.64;}.f2810e3a-332e-4c86-ad8b-1de786cd952a{fill:#daf2f2;}.\33 8f48fc4-60a2-4f6b-be5a-647d7bc19a16{fill:#333;}.\30 8824ab6-8492-48a7-ac5b-afff7f4b870c,.\32 f83085f-3550-4e4b-8498-904c30e4459b,.\33 8f48fc4-60a2-4f6b-be5a-647d7bc19a16,.\34 3dd0b64-9866-493c-87bc-ff704dd84ca5,.\37 3221c2c-feb9-45d7-8d03-232b3a2a3695,.\37 60ca067-84a3-4cbd-8c25-c357751e3d2d,.\37 81456ec-a955-4ceb-b9db-08ada55d8171,.\38 2a4e644-9bb2-4285-aeba-1aa4dbb31261,.\38 89383fe-4245-45cd-8b03-1c8c98bd9cca,.\38 c86d291-eae0-49aa-a106-10047cceeeb2,.\39 6e066db-c7b9-4069-b2fa-f878eb5f53fc,.afd029f9-82b8-4e92-9747-4f9eebbe2c21,.b12e3366-3ed6-4862-b0bf-033a90dbc77d,.b71e0328-a1ef-4243-addf-107a05743068,.c2ce40de-dae4-4afb-8461-f408379d3b5f,.d85a6b7c-1ac9-4273-91fb-a56cb6d93332{stroke:#000;}.\33 8f48fc4-60a2-4f6b-be5a-647d7bc19a16,.d85a6b7c-1ac9-4273-91fb-a56cb6d93332{stroke-linecap:round;}.\30 8824ab6-8492-48a7-ac5b-afff7f4b870c,.\32 f83085f-3550-4e4b-8498-904c30e4459b,.\33 8f48fc4-60a2-4f6b-be5a-647d7bc19a16,.\34 3dd0b64-9866-493c-87bc-ff704dd84ca5,.\35 6dc013f-9076-4fe0-97a4-bf8669879a4d,.\37 3221c2c-feb9-45d7-8d03-232b3a2a3695,.\37 60ca067-84a3-4cbd-8c25-c357751e3d2d,.\37 81456ec-a955-4ceb-b9db-08ada55d8171,.\38 2a4e644-9bb2-4285-aeba-1aa4dbb31261,.\38 89383fe-4245-45cd-8b03-1c8c98bd9cca,.\38 c86d291-eae0-49aa-a106-10047cceeeb2,.\39 6e066db-c7b9-4069-b2fa-f878eb5f53fc,.\39 bf45d5b-030a-4925-b513-e17cef05b9a4,.afd029f9-82b8-4e92-9747-4f9eebbe2c21,.b12e3366-3ed6-4862-b0bf-033a90dbc77d,.b71e0328-a1ef-4243-addf-107a05743068,.c2ce40de-dae4-4afb-8461-f408379d3b5f,.d85a6b7c-1ac9-4273-91fb-a56cb6d93332{stroke-miterlimit:10;}.\30 8824ab6-8492-48a7-ac5b-afff7f4b870c,.\32 f83085f-3550-4e4b-8498-904c30e4459b,.\33 8f48fc4-60a2-4f6b-be5a-647d7bc19a16,.\34 3dd0b64-9866-493c-87bc-ff704dd84ca5,.\37 3221c2c-feb9-45d7-8d03-232b3a2a3695,.\37 60ca067-84a3-4cbd-8c25-c357751e3d2d,.\37 81456ec-a955-4ceb-b9db-08ada55d8171,.\38 2a4e644-9bb2-4285-aeba-1aa4dbb31261,.\38 89383fe-4245-45cd-8b03-1c8c98bd9cca,.\38 c86d291-eae0-49aa-a106-10047cceeeb2,.\39 6e066db-c7b9-4069-b2fa-f878eb5f53fc,.\39 bf45d5b-030a-4925-b513-e17cef05b9a4,.afd029f9-82b8-4e92-9747-4f9eebbe2c21,.b12e3366-3ed6-4862-b0bf-033a90dbc77d,.b71e0328-a1ef-4243-addf-107a05743068,.c2ce40de-dae4-4afb-8461-f408379d3b5f,.d85a6b7c-1ac9-4273-91fb-a56cb6d93332{stroke-width:0.5px;}.\39 bf45d5b-030a-4925-b513-e17cef05b9a4,.d85a6b7c-1ac9-4273-91fb-a56cb6d93332{fill:#ccc;}.\35 6dc013f-9076-4fe0-97a4-bf8669879a4d,.\38 2a4e644-9bb2-4285-aeba-1aa4dbb31261{fill:#fff;}.b12e3366-3ed6-4862-b0bf-033a90dbc77d{fill:url(#58250322-d162-4aa6-b776-fa30c01f40c0);}.\38 89383fe-4245-45cd-8b03-1c8c98bd9cca{fill:url(#d2e2032e-e9d0-4a51-804a-680d86c4c866);}.\37 3221c2c-feb9-45d7-8d03-232b3a2a3695{fill:url(#5b97549d-5f8c-4298-b241-8cfc3bad212d);}.b71e0328-a1ef-4243-addf-107a05743068{fill:url(#ad5c7c51-8520-412b-87fe-4c953f565de7);}.\30 8824ab6-8492-48a7-ac5b-afff7f4b870c{fill:url(#d6a4e417-ae0c-43d0-8f51-54cd3c3abd3a);}.\34 3dd0b64-9866-493c-87bc-ff704dd84ca5{fill:url(#1cb640e4-55f3-4cff-8ed5-a6d16dcdc2f9);}.\39 6e066db-c7b9-4069-b2fa-f878eb5f53fc{fill:url(#a4f72a3f-faa4-4dde-b0ea-e9db50eee813);}.c2ce40de-dae4-4afb-8461-f408379d3b5f{fill:url(#20fea511-2f0b-436a-8e13-4d202efdd2cd);}.\37 81456ec-a955-4ceb-b9db-08ada55d8171{fill:url(#af884f33-c482-4e7f-91f5-7765a7d7439d);}.afd029f9-82b8-4e92-9747-4f9eebbe2c21{fill:url(#8882858b-e2e9-494a-9ee8-c080182b256b);}.\38 c86d291-eae0-49aa-a106-10047cceeeb2{fill:url(#e1034c9a-ba8b-49fb-ba80-197b81fa1925);}.\32 f83085f-3550-4e4b-8498-904c30e4459b{fill:url(#dfccf87e-a0c6-4097-a848-09b14f4b620c);}.\37 60ca067-84a3-4cbd-8c25-c357751e3d2d{fill:url(#cb29acdf-8f01-4bbc-934d-5b63ff7fdb5b);}.\35 6dc013f-9076-4fe0-97a4-bf8669879a4d{stroke:#c9c9c9;stroke-width:0.25px;}.\39 bf45d5b-030a-4925-b513-e17cef05b9a4{stroke:#333;}.\35 a63e23e-bc78-4229-b8d9-2b11046819b9{fill:url(#c77387f9-158a-477b-9aeb-4b32364f3f05);}.ce6ecc45-fd92-4c67-827a-cb09af7106d9{fill:url(#9d30146e-412d-4d7b-beae-fc99e218c082);}.bbb08023-d54e-4b14-a87c-bfdb92a6b668{fill:url(#2de130fd-2b0e-46d6-86f4-7572669be09c);}.bf068cbe-df46-4373-8903-ab6339573f2c{fill:url(#81145028-6831-444d-87cf-d9364a2c5349);}.\39 f862ce7-ba5a-41ff-81ea-7162a055e398{fill:url(#09592daa-91ea-4b01-a646-5ad45e63a37e);}.a32e4a4c-a6fb-4310-b36d-0936e822b541{fill:url(#ebc901c5-d002-407e-9749-a0da5377b785);}.b692d454-e927-4983-8c6b-ce47daf49a2d{fill:url(#f6104d38-9fa0-4d09-a997-bf4244455526);}.\35 eb6d491-7eaa-4387-869c-0ec7af466cb8{fill:url(#39e984a9-40be-4b77-8895-93956f493d97);}.\32 d4bd7dc-33cf-40ab-87e5-586f7f461212{fill:url(#eb3e55d2-45aa-46a1-9534-62e3391e360c);}.e36c8081-4ae5-4bd3-9e63-e9d3e51ed647{fill:url(#bd1a6e7d-93f8-46c3-a7c1-a7ab5115c384);}.b86c1a99-2ea1-44e0-9282-3dc79e199d08{fill:url(#1e651f46-ed8f-4293-9944-52536e2f2da4);}</style><radialGradient id="58250322-d162-4aa6-b776-fa30c01f40c0" cx="-237.05" cy="143.13" r="42.69" gradientTransform="matrix(4.06, -0.06, 0.03, 0.25, 987.98, 76.24)" gradientUnits="userSpaceOnUse"><stop offset="0" stop-color="#c38a00"/><stop offset="0.21" stop-color="#aa6300"/><stop offset="0.25" stop-color="#a46002"/><stop offset="1" stop-color="#303030"/></radialGradient><radialGradient id="d2e2032e-e9d0-4a51-804a-680d86c4c866" cx="-237.04" cy="249.45" r="42.69" gradientTransform="matrix(4.06, -0.06, 0.03, 0.25, 985.04, 206.54)" xlink:href="#58250322-d162-4aa6-b776-fa30c01f40c0"/><radialGradient id="5b97549d-5f8c-4298-b241-8cfc3bad212d" cx="-203.28" cy="162.34" r="43.58" gradientTransform="matrix(4.05, -0.17, 0.04, 0.25, 1030.15, 64.88)" xlink:href="#58250322-d162-4aa6-b776-fa30c01f40c0"/><radialGradient id="ad5c7c51-8520-412b-87fe-4c953f565de7" cx="-203.28" cy="171.07" r="43.58" gradientTransform="matrix(4.05, -0.17, 0.04, 0.25, 1030.46, 75.57)" xlink:href="#58250322-d162-4aa6-b776-fa30c01f40c0"/><radialGradient id="d6a4e417-ae0c-43d0-8f51-54cd3c3abd3a" cx="-203.36" cy="179.64" r="43.58" gradientTransform="matrix(4.05, -0.17, 0.04, 0.25, 1030.76, 86.07)" xlink:href="#58250322-d162-4aa6-b776-fa30c01f40c0"/><radialGradient id="1cb640e4-55f3-4cff-8ed5-a6d16dcdc2f9" cx="-203.36" cy="188.37" r="43.58" gradientTransform="matrix(4.05, -0.17, 0.04, 0.25, 1031.06, 96.76)" xlink:href="#58250322-d162-4aa6-b776-fa30c01f40c0"/><radialGradient id="a4f72a3f-faa4-4dde-b0ea-e9db50eee813" cx="-203.77" cy="197.7" r="43.58" gradientTransform="matrix(4.05, -0.17, 0.04, 0.25, 1031.39, 108.18)" xlink:href="#58250322-d162-4aa6-b776-fa30c01f40c0"/><radialGradient id="20fea511-2f0b-436a-8e13-4d202efdd2cd" cx="-203.78" cy="206.43" r="43.58" gradientTransform="matrix(4.05, -0.17, 0.04, 0.25, 1031.7, 118.88)" xlink:href="#58250322-d162-4aa6-b776-fa30c01f40c0"/><radialGradient id="af884f33-c482-4e7f-91f5-7765a7d7439d" cx="-203.86" cy="215" r="43.58" gradientTransform="matrix(4.05, -0.17, 0.04, 0.25, 1032, 129.37)" xlink:href="#58250322-d162-4aa6-b776-fa30c01f40c0"/><radialGradient id="8882858b-e2e9-494a-9ee8-c080182b256b" cx="-203.86" cy="223.73" r="43.58" gradientTransform="matrix(4.05, -0.17, 0.04, 0.25, 1032.3, 140.06)" xlink:href="#58250322-d162-4aa6-b776-fa30c01f40c0"/><radialGradient id="e1034c9a-ba8b-49fb-ba80-197b81fa1925" cx="-203.93" cy="231.98" r="43.58" gradientTransform="matrix(4.05, -0.17, 0.04, 0.25, 1032.59, 150.17)" xlink:href="#58250322-d162-4aa6-b776-fa30c01f40c0"/><radialGradient id="dfccf87e-a0c6-4097-a848-09b14f4b620c" cx="-204.01" cy="240.54" r="43.58" gradientTransform="matrix(4.05, -0.17, 0.04, 0.25, 1032.9, 160.66)" xlink:href="#58250322-d162-4aa6-b776-fa30c01f40c0"/><radialGradient id="cb29acdf-8f01-4bbc-934d-5b63ff7fdb5b" cx="-204.01" cy="249.27" r="43.58" gradientTransform="matrix(4.05, -0.17, 0.04, 0.25, 1033.2, 171.36)" xlink:href="#58250322-d162-4aa6-b776-fa30c01f40c0"/><linearGradient id="c77387f9-158a-477b-9aeb-4b32364f3f05" x1="-98.27" y1="23.47" x2="-62.56" y2="23.47" gradientTransform="matrix(0.88, 0.01, -0.01, 0.59, 356.37, 31.57)" gradientUnits="userSpaceOnUse"><stop offset="0" stop-color="#303030"/><stop offset="0.01" stop-color="#373737"/><stop offset="0.06" stop-color="#555"/><stop offset="0.12" stop-color="#6e6e6e"/><stop offset="0.18" stop-color="#818181"/><stop offset="0.26" stop-color="#8f8f8f"/><stop offset="0.35" stop-color="#979797"/><stop offset="0.53" stop-color="#999"/><stop offset="0.69" stop-color="#979797"/><stop offset="0.77" stop-color="#8f8f8f"/><stop offset="0.84" stop-color="#828282"/><stop offset="0.9" stop-color="#6f6f6f"/><stop offset="0.95" stop-color="#565656"/><stop offset="0.99" stop-color="#383838"/><stop offset="1" stop-color="#333"/></linearGradient><linearGradient id="9d30146e-412d-4d7b-beae-fc99e218c082" x1="-109.48" y1="69.59" x2="-74.02" y2="69.59" gradientTransform="matrix(0.87, -0.17, 0.11, 0.58, 357.08, -13.38)" xlink:href="#c77387f9-158a-477b-9aeb-4b32364f3f05"/><linearGradient id="2de130fd-2b0e-46d6-86f4-7572669be09c" x1="-475.88" y1="-42.57" x2="-440.42" y2="-42.57" gradientTransform="matrix(-0.87, -0.17, -0.11, 0.58, -117.03, -13.38)" xlink:href="#c77387f9-158a-477b-9aeb-4b32364f3f05"/><linearGradient id="81145028-6831-444d-87cf-d9364a2c5349" x1="-107.52" y1="54.24" x2="-72.06" y2="54.24" gradientTransform="matrix(0.87, -0.17, 0.11, 0.58, 357.08, -13.38)" xlink:href="#c77387f9-158a-477b-9aeb-4b32364f3f05"/><linearGradient id="09592daa-91ea-4b01-a646-5ad45e63a37e" x1="-473.91" y1="-57.92" x2="-438.45" y2="-57.92" gradientTransform="matrix(-0.87, -0.17, -0.11, 0.58, -117.03, -13.38)" xlink:href="#c77387f9-158a-477b-9aeb-4b32364f3f05"/><linearGradient id="ebc901c5-d002-407e-9749-a0da5377b785" x1="-105.59" y1="39.26" x2="-70.14" y2="39.26" gradientTransform="matrix(0.87, -0.17, 0.11, 0.58, 357.08, -13.38)" xlink:href="#c77387f9-158a-477b-9aeb-4b32364f3f05"/><linearGradient id="f6104d38-9fa0-4d09-a997-bf4244455526" x1="-471.99" y1="-72.9" x2="-436.53" y2="-72.9" gradientTransform="matrix(-0.87, -0.17, -0.11, 0.58, -117.03, -13.38)" xlink:href="#c77387f9-158a-477b-9aeb-4b32364f3f05"/><linearGradient id="39e984a9-40be-4b77-8895-93956f493d97" x1="-103.63" y1="23.91" x2="-68.17" y2="23.91" gradientTransform="matrix(0.87, -0.17, 0.11, 0.58, 357.08, -13.38)" xlink:href="#c77387f9-158a-477b-9aeb-4b32364f3f05"/><linearGradient id="eb3e55d2-45aa-46a1-9534-62e3391e360c" x1="-469.64" y1="-88.14" x2="-434.18" y2="-88.14" gradientTransform="matrix(-0.87, -0.17, -0.11, 0.58, -117.03, -13.38)" xlink:href="#c77387f9-158a-477b-9aeb-4b32364f3f05"/><linearGradient id="bd1a6e7d-93f8-46c3-a7c1-a7ab5115c384" x1="-102.04" y1="8.45" x2="-66.58" y2="8.45" gradientTransform="matrix(0.87, -0.17, 0.11, 0.58, 357.08, -13.38)" xlink:href="#c77387f9-158a-477b-9aeb-4b32364f3f05"/><linearGradient id="1e651f46-ed8f-4293-9944-52536e2f2da4" x1="-99.06" y1="-46.92" x2="-63.35" y2="-46.92" xlink:href="#c77387f9-158a-477b-9aeb-4b32364f3f05"/></defs><title>valvulaaberta</title><g id="9a759764-0cd8-49bc-8bf3-468eb4220ea8" data-name="CARCAÇA"><path class="fe587bd1-071e-493f-8939-9cd3d2ab722c" d="M227.89,669l0,.08L228,669Z" transform="translate(-0.4 -0.75)"/><path class="fe587bd1-071e-493f-8939-9cd3d2ab722c" d="M243.39,659.31c0-1.5,0-3,0-4.49q0-56.91,0-113.82c0-2.82.23-5.66-.53-8.45-7.45-7.06-12.77-14.84-8.46-26.28,1.49,4.58,5.4,5.61,9.09,7.17,3.15,1.33,4.55.39,4.49-2.71-.23-11.83,1.77-23.58,1.11-35.41-.19-3.4-.75-6.34-5.84-6,5.39-.32,5.86-3.6,5.84-7.22a62.71,62.71,0,0,0-.27-9c-.87-5.79-2-7-7.48-8.48-2.42-.64-4.45-.29-5.26,2.28s-.21,4.63,2.94,5.15c1,.17,2.86-.1,2.45,1.61s-2,1.36-3.31.75c-3.84-1.84-3.83.41-3.5,3.18.22,1.83,1.78,3.76-.19,5.48a1.32,1.32,0,0,1-1.24-1.42c-.36-4.77-3.33-6-7.56-5.92-3.67.06-7.27-.86-10.89-1.38-1.47-.21-3.46-.06-3.84-2.24.47-.78,1.16-.72,1.81-.81,5-.7,5.89-2.81,2.67-6.89a28.15,28.15,0,0,1-3.71-5.3c-1.44-3.87.61-8.23-1.64-12a3.73,3.73,0,0,0-3.76-.81c-3.45,4.14-7.47,5.34-12.75,3.43-3.46-1.25-6.11.78-7.49,4.1-.74,1.8,0,3.58.46,5.36.85,3.22-1.33,5-3.54,6.5-2.5,1.72-2.92-1.14-4.17-2.14-2.29-1.84-4.33-5.27-7.46-4.16-3.75,1.33-8.06,1-11.73,4.16.49-6.27.14-12-3.68-16.82a3.26,3.26,0,0,0-1.41-.16c-4.2.32-6.22,4-9.36,5.91-2.3,1.39-4.24,2.29-4.11,5.41.1,2.48-1.45,3.47-3.58,2.16-2.56-1.58-5.07-.47-7.57-.65-5.16-.38-11.09,1.26-15.19-3.8-.79-1-2.13-1.57-3-.39-4.28,5.74-10.35,3.93-16.11,4.53-6.18.64-12.44-1.22-18.52,1-2.42.9-6.65-2-6.13-3.9.75-2.81-.57-3.77-2.92-3.91-2.53-.14-5.35-.17-5.69,3.26-.16,1.63.65,3.39-1.86,3.74-1.65.23-3.19,2-4.69,1.36-6-2.67-12.49.64-18.49-1.6-5-1.87-10.92.16-15.49-3.88-1.57-1.38-3.54-.3-4.92,1.07-2.24,2.2-4.08,4.67-4.49,8,.06-1.38.76-2.58.8-3.8.16-5,1.07-10.18-2-14.77a3.15,3.15,0,0,0-3.67.79c0,5.83-.2,11.66-.07,17.49,0,1.73-1.33,4.5,1.66,5,2.64.4,5.85,1.18,7.38-2.35,1.73-4,3.3-3.4,5.05,0,1.58,3.07,3.39,3.65,5.2.12,1.53-3,3-4.64,5.11-.31,1.66,3.47,3.68,3.7,5.5.06,1.51-3,2.93-4,4.79-.24s3.86,3.8,5.8,0c1.4-2.74,2.85-3.73,4.55-.19,2,4.22,4.08,3.87,6-.06,1.79-3.6,3.09-2.51,4.51.31,1.91,3.78,3.94,3.74,5.77-.12,1.49-3.14,2.92-3.3,4.54-.06s3.64,4.59,5.73.29c1.66-3.44,3.22-3.42,4.89,0s3.66,3.66,5.5.13c1.56-3,3.1-3.93,4.87-.25,1.93,4,3.87,3.69,5.75,0,1.42-2.76,2.74-3.86,4.51-.26,2,4.05,4.07,4,6,0,1.36-2.82,2.73-3.2,4.29-.12,1.84,3.6,3.84,4.75,6.06.25,1.49-3,2.89-3.39,4.53,0,2,4.19,4.08,3.79,6-.17,1.35-2.77,2.57-2.93,4.33-.06,2.71,4.43,3.27,4.39,6.18-.18,1.56-2.44,2.93-2.9,4,0,1.29,3.41,3.77,3.51,6.76,3.49,12.66-.09,25.33,0,38-.08,2.67,0,4.62.4,6.22,3a17.72,17.72,0,0,0,12.71,8.06,56.87,56.87,0,0,0,13,.35c4.16-.32,4.93,1.29,4.9,5.07-.18,17.83,0,35.66-.11,53.49,0,2.68.25,4.82,3.13,6,3.19,1.34,2.57,3-.11,4.32-4.21,2.1-3.85,4.11.07,6.05,3,1.49,2.76,2.88,0,4.31-3.92,2-4.13,4.05,0,6.08,2.87,1.41,3,2.82,0,4.31-3.94,2-4.2,4-.07,6.11,2.76,1.37,3.31,2.71.13,4.28-3.84,1.89-4.42,4-.19,6.12,3.46,1.74,2.63,3.19-.22,4.59-4.16,2-3.29,4,.18,5.78,3.21,1.64,3,3.08-.07,4.59-3.88,1.94-3.68,3.91,0,5.8,3.08,1.56,3.24,3,0,4.61-3.8,1.86-3.85,3.88,0,5.8,3.06,1.55,3.29,3.06.06,4.63-3.81,1.86-4,3.83-.11,5.77,3,1.51,3.46,2.9.14,4.6-3.47,1.78-4.29,3.8-.17,5.81,3.77,1.84,2.78,3.28-.21,4.86-3.59,1.9-3.27,3.87.18,5.56,3.66,1.79,3,3.22-.16,4.82-3.69,1.86-3.19,3.9.13,5.59,3.55,1.8,3.13,3.26-.11,4.87-3.72,1.85-3.29,3.85.07,5.54s3.33,3.17,0,4.85c-3.53,1.78-3.55,3.71,0,5.53,3.18,1.62,3.72,3.15,0,4.89-1.26.6-3.13,1.19-2.35,3.19h16.27a10.2,10.2,0,0,1,.76-2.21C243.45,665.91,243.41,663.91,243.39,659.31Z" transform="translate(-0.4 -0.75)"/><path class="647da408-c8eb-4f0d-91e1-d1b0191385b6" d="M168.5,301.4c-3.74,0-4.88,1-4.74,4.77.29,7.82-.1,15.66.17,23.48.13,3.62-1.13,4.76-4.54,4.34-3.63-.46-6.59,0-8.59,4-1.63,3.27-2.9.09-3.58-1.19-2-3.83-3.93-3.77-5.85-.08-1.49,2.86-2.89,3.73-4.59.23-2.12-4.36-4.11-3.69-6,.12-1.55,3.06-3,2.63-4.35-.13-2.09-4.14-4.12-3.84-6.07.12-1.48,3-3,2.7-4.36-.06-2-4-4.06-4.12-6.06,0-1.42,2.91-2.84,3-4.31.08-2-3.84-4-4.32-6.07-.15-1.74,3.49-3.13,2.6-4.56-.23-2-4-4.07-3.39-5.86.15-1.68,3.32-2.83,2.92-4.57-.08-2.25-3.88-3.49-3.75-5.78.08-.42.71-.73,1.48-1.1,2.23,4.37,2.16,8.41,5.56,13.87,3.25,1.28-.54,2.61.14,3.82.73a5.88,5.88,0,0,0,3.84.62c4.35-.86,5.21-.07,4.71,4.11-.67,5.58,1.6,7.5,7.07,5.79a10.52,10.52,0,0,1,5.3-.54c14,2.52,28.08,1.76,42.14.34,1.29-.13,3-.23,3.24-1.77s-1.35-2.12-2.42-2.91c-2.15-1.59-5.33-1.84-6.52-4.53.43-.89,1-1.14,1.42-1,4.53,1.29,9,2.33,13.47-.41,1.49-.91,2.42.34,3.06,1.63,1.32,2.68,2.54,1.75,4,0,6-7.18,6-7.16.68-14.86-.85-1.23-1.56-2.56-2.45-3.76-1.18-1.58-2.5-2.8-4.54-1.17-.78.57-1,1.61-2,2.2a13.85,13.85,0,0,0,1.85-2.3c0-2.49-3.59-4.24-1.53-7.25,1.63.42,3.13,2.42,4.92.47,1.47-1.6.81-3.36.45-5.17-.53-2.66-2.95-3.82-5-5.86,4.23-.32,6.68,1.44,8.76,4,1.62,2,3.46,2.9,5.15.2,1.84-2.94,4.59-3.26,7.67-3.66,3.33-.43,6.71.8,9.84-.2a34.59,34.59,0,0,1,12.4-1.27,36.71,36.71,0,0,0,.83-4.25C197.3,301.52,182.9,301.56,168.5,301.4Z" transform="translate(-0.4 -0.75)"/><path class="647da408-c8eb-4f0d-91e1-d1b0191385b6" d="M407.09,306.09c0-3.83-1.1-4.73-4.78-4.69-13.73.13-27.47-.11-41.21-.12-.05.42-.12.84-.2,1.27,2.71,1.12,4.72,5.09,8.55,1.93.75-.62,2,.46,2.36,1.36.73,1.65-1.13,1.06-1.66,1.67-1.6,1.84-5.13,3.31-3.32,6.17s4.71,5.89,8.46,5.24a14.07,14.07,0,0,0,9.45-6.36c1.53-2.4.49-4-2-5-1-.44-3.15-.76-2.08-2.58.85-1.44,2.51-3.8,4.28-2.36,4.37,3.58,9.54,1.2,14,1.7,4.84.53,5.71,2.83,5.45,5.47a157.9,157.9,0,0,0-.69,28.13c.69,8.57-1.91,16.93-1.4,25.63.25,4.27,1.62,9.15-.53,13.6-.57,1.18-.56,3.09-2.42,2.15-3.74-1.88-4.36.38-4.61,3.17-.19,2.19-1,4.6-3.22,4.1-2.82-.62-2-3.38-1.25-5.42a17.48,17.48,0,0,1,1.93-3.46c.54-.84,2.68-.46,1.89-2.27-.54-1.24-1.84-1.28-3-1.27-1.67,0-3.48-.37-5,.17-2.85,1-4.39.41-6.15-2.15-2.5-3.63-10.27-4.22-14-1.49-1.6,1.18-1.88,3.15-.56,4.38,3.73,3.46,2.15,7,.49,10.49a31.64,31.64,0,0,0-2.78,17.82c1.57,12.1.82,24-.56,36-.27,2.37-1.51,4.79-4.72,2.49-1-.73-1.79-.36-2.63.39-3.58,3.2-4,6.82-.78,10.68,1.87,2.21,1.13,3.68-1,4a56.1,56.1,0,0,1-11,.11c-2.62-.18-2.47-3.3-4-4.69-.81-.72-1-2.38-2.57-1.89s-1,1.81-.6,2.88a3.19,3.19,0,0,1-.5,3.25c-3.14,4.73-2.71,7.38,1.66,11.09,1.18,1,2.22,2.33,1.83,3.86-.46,1.81-2.29,1.46-3.76,1.69-2.66.42-5.21.25-7.52,2.84-6.08,6.84-4.61,15.39-6.17,23.24-.34,1.69,1.1,3.65,2.85,3.42,2.34-.31,6-1.2,5.66-3.8-.5-3.74,1.92-4.12,3.82-5.58,1.18-.91,2.35-1.49,3.63-.83s1.28,2,1.19,3.46c-.45,6.88,1.77,13.78-.21,20.68a3.69,3.69,0,0,0,.31,2.9c3.34,4.08,5.85,7.75-1.1,11-1.39.64.06,12.73,1.28,14.57-1-1.91.33-2.58,1.63-3.46,4.42-3,4.48-3.49.12-6.31-2.33-1.51-3.11-2.81-.14-4,3.35-1.36,3.46-3.89,3.45-6.88-.08-17.66,0-35.31,0-53,0-10.06,0-10.06,10.19-10.15,13.54-.12,22.1-8.64,22.17-22.22.07-13,0-26,0-39,0-8.1,0-8.1,8-8.22,15-.21,23.12-8.26,23.19-23.25C407.06,347.73,406.89,326.91,407.09,306.09Z" transform="translate(-0.4 -0.75)"/><path class="1b22ee03-09ca-435e-95fe-e0ba2aca5f46" d="M155.8,427.15h-1A41.09,41.09,0,0,1,143,428.73q-61.54,0-123.08,0c-2.78,0-5.7.45-8.13-1.55l-4.23,0c-2.87-.53-3.77-2.1-3.74-5.12.16-20.12.12-40.24,0-60.35,0-2.77.17-5,3.69-4.91a2.44,2.44,0,0,1,1.1,1.2c.91,2.91.51,5.91.55,8.88.09,6.56.06,6.56,6.61,6.78,9.17-.37,18.33-.16,27.49-.17q68.71,0,137.42,0c11.45,0,22.93.6,34.31-1.23,2.72,1,3.47,3.51,4,5.92a64.25,64.25,0,0,1-.55,29.58,4.23,4.23,0,0,1-1.61,2.44c-2.45,2.61-4.67,5.33-8.42,1.32-1.46-1.57-4.15-.78-6.29-.78l-155.35,0c-10.48,0-21-.09-31.42-.92-2-.16-4.93-.74-5.48,2.08-.76,3.85-1.53,8,.72,11.61.89,1.44,3.06,1,4.7,1,7.33.05,14.65,0,22,0q81.42,0,162.85,0c2.82,0,5.67-.3,8.43.59a3,3,0,0,1,1.45,1.23l-.3.92-3.94-.1c-2.18,1.42-4.64,1.58-7.15,1.56-11.89-.06-23.78,0-35.67,0C160.44,428.71,158,428.58,155.8,427.15Z" transform="translate(-0.4 -0.75)"/><path class="fe587bd1-071e-493f-8939-9cd3d2ab722c" d="M167.78,325.1a9.33,9.33,0,0,1-3-8.62c.27-1.72.62-2.47,2.5-1.4,1.24.71,1.48,4.34,4,1.71,1.33-1.41-.89-6.73-3-7.57-.75-.3-1.68-.15-2.42-.46a1.75,1.75,0,0,1-.83-2.13c.22-1.23,1.19-1.45,2.25-1.5,3.89-.2,7.14,1,9.29,4.39,1.22,1.92,1.95,3.83,3.68.15,2.79-5.92,9.2-4.16,13.34-3.92,4.34.25,7.9-2.14,11.86-1.51,2.44.39,4.33.37,5.57-2a6,6,0,0,1,.83,3.8c.08,14.72-.2,29.44.6,44.14.13,2.45.25,5-1.34,7.18-2.19,1.59-4.74,1.38-7.21,1.38q-94.57,0-189.15,0c-2.3,0-4.7.26-6.7-1.35a6.73,6.73,0,0,1-.43-.56c0-6.65-.08-13.29-.08-19.94,0-.93-.31-2.13.87-2.6,1.43-.57,2.15.46,2.67,1.55,1.7,3.55,3.41,4.89,5.65.32,1.53-3.11,3.49-2.89,5,0,1.89,3.7,3.39,4.14,5.35,0,1.39-2.91,3.36-3.21,5-.15,1.76,3.25,3.23,4.68,5.39.23,1.63-3.34,3.62-3.06,5.26.13,1.44,2.8,2.83,4.36,4.85.38,1.81-3.57,3.78-4,5.78,0,1.43,2.86,3,3.47,4.63.11,1.76-3.53,3.74-4.28,5.75-.19,1.44,2.93,2.93,3.56,4.6.25,2.14-4.22,4.16-3.7,6.08.11.72,1.42,1.4,2.7,3.34,2,2.52-.06,5-.08,6.85,2.11a2.64,2.64,0,0,0,2.21.83c3.94-1.35,7.76-2.22,11.35.9.18.15,1-.16,1.3-.47,1.1-1.13,2.13-3.38,3.87-1.63,2,2,3.22,4.67,2.2,7.74-.4,1.2-2.54,2.29-.28,3.69,1.67,1,3.81,1.59,5.17.38,2.65-2.38,5-1.67,7.61-.32,1.85,1,3.86.87,5.86.82,12.26-.31,24.56.92,37-1.29-1.32-2.78-4.45-2.93-6.63-4.28-1.89-1.16-4.52-1.87-3.49-4.41s3.4-2.32,5.87-.94a8.66,8.66,0,0,0,8.93.1c5.39-3,5.5-2.91,6.93,3.53,1.67-2.55,2-5.64,5.38-6.64,1.61-.48,1.39-3,.11-4.32a34.73,34.73,0,0,1-6.2-9C170.7,323.81,169.12,325.15,167.78,325.1Z" transform="translate(-0.4 -0.75)"/><path class="fe587bd1-071e-493f-8939-9cd3d2ab722c" d="M250.91,346.13q-.08,38.43-.15,76.86,0,50.42,0,100.83c0,8.64.54,7-7.14,7.19-.66,0-1.33.06-2,.1-.54.78-1.18,2.27-1.6,2.21a2.56,2.56,0,0,1-2.09-2.49c-.05-3.72-1.37-6.33-5.18-7.5a2.39,2.39,0,0,1-1.58-2.82c1.27-5.78,0-11.87,2.65-18.71,1.57,7.37,6.83,9.59,13,11.46-.67-13.27,1.68-26.38,1-39.6-.12-2.19-.64-3.77-3.27-2.43-1.62.83-3.08.86-3.49-1.13a2.31,2.31,0,0,1,3-2.88c3.68.88,3.86-1.15,3.8-3.79-.07-2.83,0-5.66,0-8.48,0-4.75-1.94-8.11-6.88-9.32-1.19-.29-2.25-.67-3.22.3a3.74,3.74,0,0,0-.72,3.74c.35,1.56,1.67,1.54,2.8,1.24,1.51-.41,3-1,3.75.95a3.6,3.6,0,0,1-1.08,4.07c-1.48,1.49-3,1.17-4.49.17-.67-.44-1.27-1-2.13-1.67a8.3,8.3,0,0,0,1.21,6.11c1,1.73.12,2.82-1.05,3.87-.84.75-1.59,1.92-3,1.1s-1.32-2.27-1.2-3.58c.35-3.76-1.41-5-5-4.86-5.15.23-10.14-1.22-15.21-1.86-2.57-.33-3.13-1.6-2.67-3.66.51-2.31,2-3.05,4-1.63,1.3.91,2.08.53,2.94-.47,1.25-1.45.32-2.45-.69-3.38a18.84,18.84,0,0,1-4.51-5.9l.7-.68c6.36-1.94,12.89-.78,19.34-.92,12.2-.28,11.43,1.15,11.44-11.27q0-37,0-73.94a37.92,37.92,0,0,1,.22-6c.23-1.47.4-3.41,2.15-3.53,2.15-.15,4.61-1.27,6.48.88C251.41,345.13,251,345.66,250.91,346.13Z" transform="translate(-0.4 -0.75)"/><path class="fe587bd1-071e-493f-8939-9cd3d2ab722c" d="M11.78,427.16h143c-4.83.88-6,7.32-11.49,7.47-1.61,0-1.1,2-.69,3.32a3.21,3.21,0,0,1-1.36,3.92c-1.69,1.12-3.12.59-4.57-.47-1-.74-1.89-2.53-3.32-1.5-4.76,3.45-9.46-.58-14.23.06-1.92.25-4.86.15-4.81-3.39,0-.35-.93-1-1.46-1-.86-.07-1.07.77-.89,1.42.38,1.37,0,2.61-1.36,2.6-5,0-9.68,3.74-14.8,1.14-1.26-.64-2.25.1-3.35.3-3.58.66-7.13,1.31-10.71,0a4.71,4.71,0,0,0-2.26-.29c-1.94,5.28-4.47.75-6.63.37-2.7-.47-6.3-.72-2.79-4.9.67-.79.41-1.75-.6-1.89-1.79-.24-3.67-.58-5.37.37-1,.56-1.41,1.58-.56,2.5,3.25,3.52,1,4-2.14,3.95a5.19,5.19,0,0,0-3.93,1.82c-.75.75-1.86,1.4-2.6.46-2.75-3.5-5.75-.83-8.65-1a98.57,98.57,0,0,1-12.94-1.91c-2.48-.49-5-2.14-7.66-.33-1.51,1-2-.43-2.51-1.43-1.85-3.84-4-2.79-6-.3-2.26,2.81-4.54,5.69-5.28,9.56Z" transform="translate(-0.4 -0.75)"/><path class="fe587bd1-071e-493f-8939-9cd3d2ab722c" d="M155.8,427.15h50c-2.27,5.12-4.39,6.13-10.17,4.29-2.85-.91-5.44-1.55-7.65,1.07-1.94,2.3-1.1,4.4.22,6.79s-4.2,9.52-7.07,9.42c-1.37,0-1.17-1.37-1.63-2.16-3.1-5.43-6.19-6.44-11.92-4a2.65,2.65,0,0,1-1.88.28c-3.3-1.77-4.28.43-5.41,3.23C157.33,440,159.13,432.9,155.8,427.15Z" transform="translate(-0.4 -0.75)"/><path class="fe587bd1-071e-493f-8939-9cd3d2ab722c" d="M240.77,577.23q0,17,0,34.07c0,1,.1,2.18-1.13,2.46-1.75.39-1.6-1.11-1.92-2.18-.82-2.71-2.72-5.08-.32-8.25,2.28-3-2.34-6.06-1.31-8.7,1.25-3.19,2.55-5.62-.48-8.39-1.38-1.26-.67-2.7.48-3.91C237.61,580.69,239.48,579.35,240.77,577.23Z" transform="translate(-0.4 -0.75)"/><path class="952e329b-0227-40e4-8c2c-fda913fea178" d="M328.75,668.94q0-68.89,0-137.77c1.73,1.44.95,3.41,1,5.13q.07,63.77,0,127.55C329.71,665.55,330.56,667.54,328.75,668.94Z" transform="translate(-0.4 -0.75)"/><path class="fe587bd1-071e-493f-8939-9cd3d2ab722c" d="M240.78,655.25c-2.06-2.36-3.35-3.81-4.6-5.29a17.33,17.33,0,0,1-1.1-1.63c5.57-3.68-.89-9.28,2.15-13.4,1.1-1.49,0-2.86-.62-4.18-.53-1.14-.94-2.28.39-3a3.71,3.71,0,0,1,2.35-.41c1.5.29,1.41,1.64,1.41,2.8C240.78,638.09,240.78,646.07,240.78,655.25Z" transform="translate(-0.4 -0.75)"/><path class="fe587bd1-071e-493f-8939-9cd3d2ab722c" d="M240.48,536.19v23.75c-2.62-1.15-2.93-3.57-4.26-5.05-2.54-2.82,1.84-2.57,2.22-4.25.3-1.33.88-3-.13-3.79C232,541.94,239.23,539.52,240.48,536.19Z" transform="translate(-0.4 -0.75)"/><path class="16281b11-2ab5-4f9a-abcb-f7f77a1e2fb2" d="M363.93,326.69c-.52-2.95.24-4.52,4-4.57,4.57-.06,3.9,2.67,4,5.49.15,3.1-.39,4.8-4.19,4.85C363.22,332.52,363.85,329.7,363.93,326.69Z" transform="translate(-0.4 -0.75)"/><path class="fe587bd1-071e-493f-8939-9cd3d2ab722c" d="M232.9,478.61c4.26,6,4.08,11.93-.87,16.54C231.91,489.33,230.93,484.1,232.9,478.61Z" transform="translate(-0.4 -0.75)"/><path class="fe587bd1-071e-493f-8939-9cd3d2ab722c" d="M198.23,434.57c1,.07,6.42,6.19,6.4,7.21a1.35,1.35,0,0,1-.07.49,1.66,1.66,0,0,1-2.35,1.08c-2.47-.84-5.48-1.1-5.38-4.74,0-1.36-.78-3,.93-4C197.88,434.5,198.08,434.56,198.23,434.57Z" transform="translate(-0.4 -0.75)"/><path class="fe587bd1-071e-493f-8939-9cd3d2ab722c" d="M240.87,567.62c-.64,1.3,1.1,4-1.56,3.8-1.83-.12-2.25-2.58-2.49-4.42s.49-3,2.35-3C242.18,564,240.16,566.42,240.87,567.62Z" transform="translate(-0.4 -0.75)"/><path class="fe587bd1-071e-493f-8939-9cd3d2ab722c" d="M242.22,483.11c1.55,0,3,.28,3.33,2.11.22,1.22-.61,2-1.69,1.63-1.56-.58-4-.17-4.35-2.36C239.35,483.28,241.06,483.12,242.22,483.11Z" transform="translate(-0.4 -0.75)"/><path class="fe587bd1-071e-493f-8939-9cd3d2ab722c" d="M204.11,447.23a1.74,1.74,0,0,1,1.59,2.18c-.11,1.2-.55,2.35-2,2.28s-1.9-1.12-1.75-2.4A2.31,2.31,0,0,1,204.11,447.23Z" transform="translate(-0.4 -0.75)"/><path class="fe587bd1-071e-493f-8939-9cd3d2ab722c" d="M210.7,440.15c-2-4.17-.31-8.62-1-12.89l.06-.14c3.22,2.71,3.59,7.67,1,13Z" transform="translate(-0.4 -0.75)"/><path class="eea00e4d-f33f-445c-bbeb-10e6691b3e56" d="M248.22,343.24" transform="translate(-0.4 -0.75)"/><path class="eea00e4d-f33f-445c-bbeb-10e6691b3e56" d="M260.56,345.86c-1.16-3.85-5.6-.26-7.74-2.61h-4v.07c.93.2,1.57.84,2.11,2.81,1.52,1.73.83,3.83.83,5.75q.06,86.47,0,172.94c0,1.8,0,3.6,0,6,2.5-1.74,2-3.37,2-4.77.29-17.36.26-34.72.82-52.09.93-28.76-.12-57.56,1-86.34a269.2,269.2,0,0,1,3.4-33.57C259.45,351.3,261.36,348.53,260.56,345.86Z" transform="translate(-0.4 -0.75)"/><path class="fe587bd1-071e-493f-8939-9cd3d2ab722c" d="M124.18,351.33a60.86,60.86,0,0,1-6.46-1.47c-1.94-.67-2.68-2.5-2.74-4.38,0-1.59,1.22-2.29,2.7-2.35,1.68-.07,2.67-1.18,3.79-2.18a12.71,12.71,0,0,1,2-1.24c3.06,5.82,7.9-1.15,11.12,1.53,1.37,1.14,4.73,3.87,1,5.22C131.52,347.91,128,350.76,124.18,351.33Z" transform="translate(-0.4 -0.75)"/><path class="fe587bd1-071e-493f-8939-9cd3d2ab722c" d="M372.26,387.31c2-1.46,1.55-5.71,5.51-5.14s5.4,5,5.4,7.14c0,3.56-4.13,1.27-6.42,1.72C374.23,391.52,372.79,390,372.26,387.31Z" transform="translate(-0.4 -0.75)"/><path class="fe587bd1-071e-493f-8939-9cd3d2ab722c" d="M368,444.3c-.23-1.83-.32-2.81-.49-3.78a3.48,3.48,0,0,1,2-4.08c1.71-.8,3.24-.12,4.36,1.31a3.92,3.92,0,0,1,.23,5c-.46.65-1.37,1-1.76,1.68-1,1.75-1,5.2-3.49,4.65S368.6,445.32,368,444.3Z" transform="translate(-0.4 -0.75)"/><path class="fe587bd1-071e-493f-8939-9cd3d2ab722c" d="M369,420.23c1.19.06,1.2.75,1,1.67-.47,1.81,0,4.25-2.52,4.75-.89.17-1.71-1.08-1.24-2.19C366.86,422.9,366.64,420.69,369,420.23Z" transform="translate(-0.4 -0.75)"/><path class="fe587bd1-071e-493f-8939-9cd3d2ab722c" d="M370.92,375.79a2.25,2.25,0,0,1,1.92-2.46c1.21-.23,1.83.47,1.86,1.63,0,1.4-.3,2.72-2,2.76C371.58,377.75,371.08,376.81,370.92,375.79Z" transform="translate(-0.4 -0.75)"/><path class="fe587bd1-071e-493f-8939-9cd3d2ab722c" d="M142.08,342.82c.5-1,1-2.18,2.41-2,.93.09,1.26,1.08,1.17,1.92-.14,1.26-.79,2.26-2.25,2A1.71,1.71,0,0,1,142.08,342.82Z" transform="translate(-0.4 -0.75)"/><path class="fe587bd1-071e-493f-8939-9cd3d2ab722c" d="M168.11,324.85l-2,5.16C163.6,326.9,166,326.11,168.11,324.85Z" transform="translate(-0.4 -0.75)"/><path class="6becd721-37b0-470e-b439-3f25088d3935" d="M216.78,409.08c-1.78,6-3.2,12.14-7.18,17.22l-194.31-.08c-1.5,0-3-.07-4.49,0-2.41.13-3.29-1.07-3.14-3.33.07-1,0-2,0-3,0-12.81.06-13.19,12.69-11.62,7.15.89,14.24.62,21.34.64,54.78.16,109.56.09,164.34.22,1.57,0,5.23-2.21,4.55,2.77-.17,1.23,2.29,1.56,2.85-.11C214,410,214.66,408.78,216.78,409.08Z" transform="translate(-0.4 -0.75)"/><path class="6850a3a7-21ff-40da-a8b2-d951184b2f49" d="M210.68,356.81c-.87,1.83-.5,3.24,1,4.78a11.87,11.87,0,0,1,3.12,6.53c-4.48.45-8.89-.52-13.37-.51-43.57.1-87.13,0-130.7.12A263.74,263.74,0,0,0,28,370.87c-4.61.77-9.16,1.69-13.2,4.22-7.06.11-7.09.11-7.08-6.78,0-3.65.17-7.31.26-11,2.16-.07,4.32-.21,6.48-.21l189.27,0C206,357.13,208.36,356.92,210.68,356.81Z" transform="translate(-0.4 -0.75)"/><path class="85b3f5dd-37d6-4cc0-b4ea-fa92e4095207" d="M14.78,375.1c3.05-6.17,9.28-5.12,14.39-5.89,32.21-4.88,64.68-2.75,97.06-3.05,26.65-.25,53.31,0,80-.09,3.09,0,6,.34,8.56,2.06l.95,5.08C189,377.4,162,374.63,135.21,375,95.07,375.5,54.93,375.1,14.78,375.1Z" transform="translate(-0.4 -0.75)"/><path class="6717b84f-ef2e-47cc-b4c8-187e1aa9168a" d="M206.73,327.53c.37,2.87.11,4.84-3.89,4.92-4.44.08-4.11-2.41-4.15-5.33s0-4.93,4-5C207.11,322.09,207,324.49,206.73,327.53Z" transform="translate(-0.4 -0.75)"/><path class="fe587bd1-071e-493f-8939-9cd3d2ab722c" d="M291.7,657.64c.38-10.51-1.34-20.92-1.13-31.42q.37-18.48,0-37c-.32-14.63-.86-29.25-1.7-43.87-.31-5.4-1.76-11,.22-16.32a27.09,27.09,0,0,0,1.53-9.8c-.12-11.48-.54-23-.78-34.42-.62-29.62-.3-59.25-1.08-88.87-.31-11.64-1.5-23.25-1.29-34.91a59.37,59.37,0,0,0-1.19-10.41c-.3-1.84-.34-4.59-3.67-3.75-1.53,2.42-1.15,5.15-1.16,7.79,0,18.16-.13,36.32,0,54.48.59,83-1.73,165.9-1,248.85,0,1.17-.06,2.33-.07,3.5,0,2.46-1,3.81-3.15,4.21a16.74,16.74,0,0,1,1.06,1.7h17.19c.43-.77.89-1.53,1.36-2.27A8.15,8.15,0,0,1,291.7,657.64Z" transform="translate(-0.4 -0.75)"/><path class="fe587bd1-071e-493f-8939-9cd3d2ab722c" d="M328.93,665.14a4.13,4.13,0,0,1-3.74,1.31c-5.76-.09-11.52-.11-17.28,0-2.66-.22-5.33,0-8-.15a9,9,0,0,1-3-.75c-.47.74-.93,1.5-1.36,2.27h34.62A9.35,9.35,0,0,0,329,665C329,665,329,665.08,328.93,665.14Z" transform="translate(-0.4 -0.75)"/><path class="fe587bd1-071e-493f-8939-9cd3d2ab722c" d="M276.15,666.24c-3.66.12-7.33-.12-11,.19-4.16-.25-8.32-.09-12.48-.11-3.38,0-5.32,0-6.43-.71a10.2,10.2,0,0,0-.76,2.21h32.85a16.74,16.74,0,0,0-1.06-1.7A7.34,7.34,0,0,1,276.15,666.24Z" transform="translate(-0.4 -0.75)"/><path class="9b1b4452-5e95-4ffe-bd99-378bc3583856" d="M254.15,342.07c24.93-6.71,49.13-3.49,73.16-.11.44.25.28.58-.16.83-4.91-.56-6,1.83-6,6.43q.2,85.59.06,171.17c0,9.18,0,9.18,8.88,9.59.86,1.39.48,2.93.48,4.4q0,64.5,0,129c0,1.46.41,3-.5,4.38h-3.93c-1.69-1.74-1.57-4-1.53-6.12.64-29-1.57-57.88-1-86.83a158.16,158.16,0,0,0-1.11-19.42,22.8,22.8,0,0,0-9.84-17.15c-5.73-4.07-5.68-6.16.24-10,2.57-1.68,2.68-4,2.66-6.54-.31-28.61.63-57.23-.72-85.85-.68-14.44-.69-28.92-2.22-43.32-.92-8.66-2.15-17.2-8.27-24.13-2-2.3-1.4-5.34-1.67-8.14-.46-4.89,1.32-10-1.15-14.66-4-2.22-8.4-.79-12.59-1.13-2.12-.17-4.27,0-6.42-.07-10.8.51-10.8.51-10.8,11.57q0,82.17,0,164.34c0,4.46.38,8.85-3.79,12.31-2.06,1.71-1.18,5-1.18,7.67q0,59.44,0,118.88c0,2.92.66,6.07-1.71,8.55-5.82.08-11.66-.07-17.45.31-3.93.26-4.68-1.29-4.67-4.86q.16-66.61.08-133.23c7.8-1.42,7.66-7,7.67-13.28,0-54.22-.23-108.44-.09-162.67,0-2.95-.54-6,1.21-8.75,2-.87,2.17.79,2.51,1.9a22.1,22.1,0,0,1,.44,6.45c0,39.46.13,78.92-.21,118.38-.14,16.63-.13,33.26-.37,47.18-.16-31.68.77-66.05.57-100.43-.1-17.3.48-34.59,1.88-51.84.43-5.32-1.55-9.86-.41-15.05.8-3.67,4.22-7.29-.54-8A1.69,1.69,0,0,1,254.15,342.07Z" transform="translate(-0.4 -0.75)"/><path class="6d89a3be-7ef2-43b2-beed-dd89032bb237" d="M283.42,342.15c6.66.19,13.14-.16,19.73,1.77a4.53,4.53,0,0,1,.46,2.41c1.1,30.75,1.31,61.52,1.17,92.29-.13,27,0,54,0,80.94,0,3.63.09,6.92,2.91,10.13,2,2.23,2,6.18,2,9.49q.1,61.45,0,122.9c0,2,.06,4-1.43,5.67-3.33,0-6.66,0-10,.17-2.64.14-4.68-.43-5.08-3.41-.22-1.61-.26-2.24-1.6-.45-.7.94-1.35-.13-1.44-1s0-1.66-.07-2.5c-1.32-26.6-.34-53.23-1.23-79.82-.53-15.69-.06-31.5-2.62-47.1a5,5,0,0,1,.29-2.43c5-13.42,2.13-27.19,1.87-40.84,0-1.49-.28-3-.28-4.47,0-8.66-.19-17.33,0-26,.62-25.79-1-51.55-1.35-77.32-.13-10.35.22-20.9-1.66-31.24-.31-1.69-.63-3.25-2-4.41S282.31,343.44,283.42,342.15Z" transform="translate(-0.4 -0.75)"/><path class="bca62ee0-0125-4484-b875-9df17365dba0" d="M283.42,342.24c0,1.28-.24,3.42-.25,4.71,0,50.29.47,100.59-.21,150.87-.74,55.08-.86,110.16-.8,165.24,0,3.64-.85,5.17-4.7,4.87-4.14-.32-8.32-.16-12.48-.22q.08-65.43.17-130.85c0-3-1.05-6.39,3.73-7.38C271,529,270,526.29,270,524.6q.09-44.7.05-89.4c0-28.8.15-57.6-.07-86.4,0-4.94,1.89-7,6.65-6.73C279.67,342.24,281.09,342.2,283.42,342.24Z" transform="translate(-0.4 -0.75)"/><path class="952e329b-0227-40e4-8c2c-fda913fea178" d="M308.29,667.75q-.1-65.17-.21-130.33c0-1.5,0-3,0-4.49,0-1,.16-2.44-.93-2.59-5.13-.67-3.94-4.51-3.95-7.64q0-89.39,0-178.77c2.19,5.79.57,11.79.9,17.69.16,2.92.52,5.31,2.73,7.62,5.75,6,6.3,14.06,7.28,21.74,2,15.79,2.22,31.73,2.57,47.6.63,28.55.36,57.13.51,85.69,0,3-.82,5.2-4.19,5.68-1.48.21-3.15.52-3.58,2.21s1,3,2.21,3.59c12.58,6.37,13,18.37,13.42,29.93.52,13.3-.45,26.67.25,39.95,1.1,20.72.67,41.42.9,62.13Z" transform="translate(-0.4 -0.75)"/><path class="fe587bd1-071e-493f-8939-9cd3d2ab722c" d="M328.25,348.5c.07-2.29-.05-4.77-2.75-5.89-5.29-.18-6.71.94-7.22,5.81a43.18,43.18,0,0,0-.12,4.5q0,84.47,0,168.94c0,8.78,0,8.78,8.54,11,2.27,1.69,1.65,4.18,1.65,6.43q0,60.31,0,120.63c0,1.9.37,3.88-.67,5.68a9.35,9.35,0,0,1,1.12,2.86h13.92a4.11,4.11,0,0,0,.68-3c-.1-2.26-.09-4.18-2.65-5.28-3-1.3-4-3-.2-4.82s3.65-3.91-.1-5.78c-3-1.5-3.37-2.92,0-4.58,3.64-1.81,4-3.85,0-5.82-3-1.49-3.31-2.78-.09-4.64,4.16-2.41,4.12-3.3-.23-5.92-3-1.78-2.63-2.93.13-4.35,4-2.06,4-4.14-.08-6.13-2.89-1.42-3-2.79,0-4.26,4-1.92,4.19-4,.13-6.12-2.64-1.36-3.45-2.66-.19-4.26,3.85-1.89,4.36-4,.23-6.14-2.71-1.4-3.32-2.79-.22-4.32,4-2,4.23-4,.21-6.11-3.54-1.83-2.51-3.14.26-4.57,3.93-2,3.42-4-.16-5.83-3.23-1.61-3.08-2.93.05-4.54,3.67-1.89,3.79-3.92-.1-5.83-3.13-1.54-3.14-3,.07-4.58,4.46-2.18,3.33-4.17-.31-6.06-1.74-.9-3.42-1.76-.74-3.81,5.37-4.11,5.26-4.45-1.09-7.26-2-1.11-1.11-2.55-.27-3.75,1.15-1.64,1.9-3.22.43-5-2.82-3.36-1.08-5.42,2-7.1,3.22-1.78,3.83-4.06,1.23-6.8-2.27-2.39-3.42-5.53-2.36-8.28,2.45-6.38-.71-12.46-.18-18.7.31-3.68-2.29-5.07-5.65-3.53-2.56,1.17-5.13,2.39-5.53,5.82a3.1,3.1,0,0,1-3.52,2.86c-2.24-.23-2.13-2.21-2.27-3.86a5.74,5.74,0,0,1,.39-3.44c1.65-2.71,1.57-5.65,1.67-8.66.17-5.11,4.08-9.14,9.37-10.07,2.11-.37,4.58-.22,5.49-2.7s-.88-4-2.39-5.59c-2.54-2.68-3.67-5.61-1.08-8.9,1-1.21.62-2.88,1.82-4.41,2.59,6.58,8.11,5.61,13.23,5.41,5.67-.21,6.68-2,4.29-7.15-2.05-4.4-.74-7,4.11-7.48,2.56-.27,4.25-1.49,4.59-3.8,1.14-7.55,2.31-15.16,1.91-22.8-.59-11.44-2.63-22.91,2.63-33.91a7.81,7.81,0,0,0-.63-7.67c-.68-1.13-1.31-2.37.16-3.53,2.23-1.76,8.32-2,10.27.26,2.89,3.34,6.17,4.13,10.25,3.26,1-.21,2.33-.46,3.23,1a20.3,20.3,0,0,0-2.28,4.29c-.69,2.52-1.18,5.35,1.78,6.48s4.06-1.41,4.87-3.69c.51-1.42.76-3.09,2.71-3.1,4.58,0,4.61-3.58,5.2-6.61.52-2.63-.1-5.31-.2-8-.33-9.17,1.79-18.2,1.43-27.31a246.1,246.1,0,0,1,.61-28.38c.34-4.49-1.74-6-6.28-7.19-4.92-1.26-9.94.51-14.8-1.29-1.77-.66-3.52.67-4.49,2.45-1.08,2,.29,3.11,1.59,4.19,2.8,2.33,1.82,4.26-.6,6a21.14,21.14,0,0,1-3.8,2.4c-3.63,1.61-6.25-.42-8.23-2.93s.69-3.78,2.14-5.24c.79-.8,2-1.39,1.51-2.84s-1.58-2.44-3-2.24a13.1,13.1,0,0,1-7.68-1.45c-1.16-.55-1.83.28-2.24,1.28-.6,2.28-.37,4.62-.38,6.95q-.24,59.43-.17,118.86c0,1.83,0,3.66-.09,5.49-.12,2.38-1.25,3.69-3.71,3.74-7.66.15-15.31.12-23,0-2.64,0-3.92-1.32-4-4" transform="translate(-0.4 -0.75)"/><rect x="209.6" y="288.25" width="152" height="35"/><rect x="209.6" y="298.25" width="152" height="35"/><path class="eea00e4d-f33f-445c-bbeb-10e6691b3e56" d="M210.48,301.23c-.09,18.2-.19,37.11-.28,55.31-1.81,1.62-1.68,3.3-.29,5.13a15.16,15.16,0,0,1,3.18,6.54,10.17,10.17,0,0,0,2.14,4.72,19.58,19.58,0,0,1,1,2.25c3.44,11.2,2.63,22.41.07,33.63A69.8,69.8,0,0,0,209.12,426q.08.41.17.82c2,4.21.3,8.7,1,13,9,0,18-.21,26.93.17,4.69.2,6.2-1,6.16-6-.25-28.6-.13-57.2-.07-85.8,0-1.48-.92-3.84,1.38-4.18,1.94-.29,4.78-1.77,5.76,1.77,1.52,1.73.83,3.83.83,5.75q.06,86.47,0,172.94c0,1.8,0,3.6,0,6,2.5-1.74,2-3.37,2-4.77.29-17.36.26-34.72.82-52.09.93-28.76-.12-57.56,1-86.34.44-11.32-.69-26.38,1.15-37.5.36-2.7.38-3.44.63-6.12-1.16-3.85,37.93-40.48,35.79-42.83l-.5-.25c-3.71,0-41.62,42.38-35.37,41,21.24-4.81,64.3.68,68.06,1.31.41.15.45.29.47.54,2,1.73,1.49,4.24,1.69,6.29.36,3.79,0,6.88.06,11.19.11,18.06.11,29.73.11,49.73.08,9.08-.17,16.17.17,24.75.13,3.32-.08,4.43,3.5,4.33,8-.23,16-.34,24,.06,4.61.23,5.46-1.45,5.44-5.68-.15-40.93-.08-81.87-.1-122.8,0-3.16.09-7.4,0-10.55" transform="translate(-0.4 -0.75)"/></g><path class="3d6041e0-0a5c-4742-bde6-d0f14a3766d5" d="M244.24,669c-1.95-.75-2.4-2.33-2.4-4.22,0-44.24,1.18-87.54,1.16-131.78,0-.93,0-2,0-3,2-.2,3-1,5-2a6.89,6.89,0,0,0,2-3,35.3,35.3,0,0,0,1-5c0-33.16.2-59.9.2-93.06,0-20-.09-40,.07-60,.05-6.43.05-12.87.19-19.3a3.84,3.84,0,0,0-.32-2.15c-1-1.79-1.84-2.3-3.87-1.86l-1.86.41a1.56,1.56,0,0,0-1.43,1.74c0,3,0,6.08,0,9.12q0,37.38,0,74.76c0,2,.2,4,.05,6.08-.26,3.44-2.12,4.26-4.9,4.25-2.39,0-4.78-.19-7.18-.19-6.6,0-13.2,0-19.8,0-1.05,0-1.43-.26-1.35-1.33.12-1.71,0-3.42.19-5.14a14.22,14.22,0,0,0-.64-5.67,1.07,1.07,0,0,0-1.21-.87c-1.73,0-3.41-.17-5.06.79a8,8,0,0,1-4,.67q-19,0-38,0a11.94,11.94,0,0,1-5.22-1.08,3.59,3.59,0,0,0-2.75-.22,32.92,32.92,0,0,1-9.44,1.29q-63.66.05-127.31,0a8.52,8.52,0,0,1-5-1.29,3.07,3.07,0,0,0-1.85-.38c-.84,0-1.68,0-2.52,0a3.53,3.53,0,0,1-3.8-3.33,2.37,2.37,0,0,0-.22-.53v-7a2.84,2.84,0,0,0,.12-1.41q0-27.72,0-55.44c.15-2.14,1.52-3.33,3.59-2.92a10.79,10.79,0,0,0,3.2.12c.72-.07,1.44,0,2.16,0q95,0,190.07,0c2.08,0,4.15-.3,6.23-.26.84,0,1.13-.43,1.1-1.2-.11-2.8.23-5.59.24-8.39q0-21.12,0-42.24c0-3.22-2.87-14.06.27-14.06,11.4,0,29.6,0,41,0,14.08.05,25.92,0,40,0,18.55,0,33.45.06,52,0,4.6,0,11.4.07,16,0,.93,0,1.22,10.72,1.13,11.67,0,.44,0,.88,0,1.32q0,55.86,0,111.71c0,6.4.05,12.79.1,19.19,0,1-.09,2.07-.15,3.11a3,3,0,0,1-1.78,2.53,6.56,6.56,0,0,1-4.09.6,118,118,0,0,0-15.81-.66c-2.8.05-5.57.55-8.38.48a5.3,5.3,0,0,1-2-.29,3.61,3.61,0,0,1-2.08-2.88,19.43,19.43,0,0,1-.28-5.26c.43-5.63,0-11.28.23-16.91.28-8.56,0-17.12.29-25.67.21-6.84-.1-13.68.23-20.51.25-5.07,0-10.15.34-15.22a29.9,29.9,0,0,0-.42-6.21c-.28-2-.91-2.86-2.09-2.95a3.8,3.8,0,0,0-4.21,2.48,13.67,13.67,0,0,0-.54,4.27,123.87,123.87,0,0,0,.17,12.47c.08.76,0,1.52,0,2.28q0,79.32,0,158.63a15.66,15.66,0,0,0,.17,2.87,3.24,3.24,0,0,0,2.92,2.88c1.43.24,2.87.18,4.3.4,1.69.26,2.3.84,2.42,2.54a11,11,0,0,1-.09,2.51,17.69,17.69,0,0,0-.12,2.75q0,63.06,0,126.11a12.55,12.55,0,0,1-.14,2.63c-.29,1.37-.71,1.72-2.07,1.88a7.76,7.76,0,0,0-1.78.23h-1a2.61,2.61,0,0,0-1.6-.36c-7,0-14.07-.07-21.1,0-3.27,0-6.55.15-9.82.06-4.43-.13-8.87-.23-13.3-.06-10.3.4-20.59.08-30.89.2a1.28,1.28,0,0,0-.81.12Z" transform="translate(-0.4 -0.75)"/><path class="f2810e3a-332e-4c86-ad8b-1de786cd952a" d="M280.24,76.8h.23q0,27.94,0,55.88c0,.35.11.73-.23,1Z" transform="translate(-0.4 -0.75)"/><path class="38f48fc4-60a2-4f6b-be5a-647d7bc19a16" d="M308.25,294.69V1h-44V294.69Z" transform="translate(-0.4 -0.75)"/><path class="d85a6b7c-1ac9-4273-91fb-a56cb6d93332" d="M294.92,289.59V46h-20V289.59Z" transform="translate(-0.4 -0.75)"/><path class="82a4e644-9bb2-4285-aeba-1aa4dbb31261" d="M278.64,289.65h12.63s1,3.57.11,4.35c-2.22,1.93-10.73,2.16-12.74.07C277.82,293.21,278.64,289.65,278.64,289.65Z" transform="translate(-0.4 -0.75)"/><path id="aec5a1ee-9b99-4c01-89b9-996c4ed42d82" data-name="ENVOLTÓRIO" class="d85a6b7c-1ac9-4273-91fb-a56cb6d93332" d="M360.16,292.21H210.91v9.4H164c0-.83-.9-5.61,7.36-9.16,5.39-2.32,21.44-1.19,21.44-1.73,0-60-.23-122.68-.23-182.71h93m74.53,184.2v9.4H407c0-.83.9-5.61-7.36-9.16-5.39-2.32-21.44-1.19-21.44-1.73,0-60,.23-122.68.23-182.71h-93" transform="translate(-0.4 -0.75)"/><g id="b3f65f5b-b01e-42d3-97c7-d797facf7592" data-name="BOBINA"><path id="cd2d5bf3-ebf7-49e3-9461-3dc26606e056" data-name="FIO NEGATIVO" class="b12e3366-3ed6-4862-b0bf-033a90dbc77d" d="M192.93,120.27c-.19,2.34-.41,4.68-.54,7L.67,126.89c.14-2.29.38-4.65.35-7Z" transform="translate(-0.4 -0.75)"/><path id="fdc677f5-6e46-4a42-8ee3-1ca89ef8c3da" data-name="FIO POSITIVO" class="889383fe-4245-45cd-8b03-1c8c98bd9cca" d="M193,277.32c.06,2.77-.06,3.73,0,7L.7,283.93c.14-2.29.38-4.65.35-7Z" transform="translate(-0.4 -0.75)"/><path id="83286ea5-a68c-44d9-adb6-9249d189b617" data-name="FIO NEGATIVO" class="73221c2c-feb9-45d7-8d03-232b3a2a3695" d="M377,129c2.3,1.46,2.12,2.49,2.09,3.69s0,2.05-2.27,3.34l-191.61,4.65c-1.86-1.24-2.24-2.41-2.23-3.63s.71-2.19,2.22-3.34Z" transform="translate(-0.4 -0.75)"/><path id="d5c236c3-f4ec-47f0-b728-4950f679cebe" data-name="FIO NEGATIVO" class="b71e0328-a1ef-4243-addf-107a05743068" d="M377.62,141.87c2.3,1.46,2.12,2.49,2.09,3.69s0,2.05-2.27,3.34l-191.61,4.65c-1.86-1.24-2.24-2.41-2.23-3.63s.71-2.19,2.22-3.34Z" transform="translate(-0.4 -0.75)"/><path id="181d5bd4-51ca-4ef5-876d-38fd7e371f73" data-name="FIO NEGATIVO" class="08824ab6-8492-48a7-ac5b-afff7f4b870c" d="M377.95,154.52c2.3,1.46,2.12,2.49,2.09,3.69s0,2.05-2.27,3.34l-191.61,4.65c-1.86-1.24-2.24-2.41-2.23-3.63s.71-2.19,2.22-3.34Z" transform="translate(-0.4 -0.75)"/><path id="c7add6ad-311c-4322-99d5-4c67255a99dc" data-name="FIO NEGATIVO" class="43dd0b64-9866-493c-87bc-ff704dd84ca5" d="M378.6,167.41c2.3,1.46,2.12,2.49,2.09,3.69s0,2.05-2.27,3.34l-191.61,4.65c-1.86-1.24-2.24-2.41-2.23-3.63s.71-2.19,2.22-3.34Z" transform="translate(-0.4 -0.75)"/><path id="5eecda1b-02dd-4b48-88f6-72915c98f452" data-name="FIO NEGATIVO" class="96e066db-c7b9-4069-b2fa-f878eb5f53fc" d="M377.62,181.23c2.3,1.46,2.12,2.49,2.09,3.69s0,2.05-2.27,3.34L185.83,192.9c-1.86-1.24-2.24-2.41-2.23-3.63s.71-2.19,2.22-3.34Z" transform="translate(-0.4 -0.75)"/><path id="7ec3fa3b-bb0d-4ece-9aed-072970e4bfcc" data-name="FIO NEGATIVO" class="c2ce40de-dae4-4afb-8461-f408379d3b5f" d="M378.27,194.11c2.3,1.46,2.12,2.49,2.09,3.69s0,2.05-2.27,3.34l-191.61,4.65c-1.86-1.24-2.24-2.41-2.23-3.63s.71-2.19,2.22-3.34Z" transform="translate(-0.4 -0.75)"/><path id="12760528-1147-47d5-b36b-c000d134e44c" data-name="FIO NEGATIVO" class="781456ec-a955-4ceb-b9db-08ada55d8171" d="M378.6,206.76c2.3,1.46,2.12,2.49,2.09,3.69s0,2.05-2.27,3.34l-191.61,4.65c-1.86-1.24-2.24-2.41-2.23-3.63s.71-2.19,2.22-3.34Z" transform="translate(-0.4 -0.75)"/><path id="86ad8a70-e383-400f-8b0b-bde07d009546" data-name="FIO NEGATIVO" class="afd029f9-82b8-4e92-9747-4f9eebbe2c21" d="M379.25,219.64c2.3,1.46,2.12,2.49,2.09,3.69s0,2.05-2.27,3.34l-191.61,4.65c-1.86-1.24-2.24-2.41-2.23-3.63s.71-2.19,2.22-3.34Z" transform="translate(-0.4 -0.75)"/><path id="405c13b9-bdbd-47d3-9254-814b2fe23d15" data-name="FIO NEGATIVO" class="8c86d291-eae0-49aa-a106-10047cceeeb2" d="M379.58,231.82c2.3,1.46,2.12,2.49,2.09,3.69s0,2.05-2.27,3.34L187.79,243.5c-1.86-1.24-2.24-2.41-2.23-3.63s.71-2.19,2.22-3.34Z" transform="translate(-0.4 -0.75)"/><path id="13cb5043-a76b-4486-87ad-1a87deb73918" data-name="FIO NEGATIVO" class="2f83085f-3550-4e4b-8498-904c30e4459b" d="M379.91,244.47c2.3,1.46,2.12,2.49,2.09,3.69s0,2.05-2.27,3.34l-191.61,4.65c-1.86-1.24-2.24-2.41-2.23-3.63s.71-2.19,2.22-3.34Z" transform="translate(-0.4 -0.75)"/><path id="c821b89c-ff34-4ed0-9b5e-2e39faf05e00" data-name="FIO NEGATIVO" class="760ca067-84a3-4cbd-8c25-c357751e3d2d" d="M380.56,257.36c2.3,1.46,2.12,2.49,2.09,3.69s0,2.05-2.27,3.34L188.77,269c-1.86-1.24-2.24-2.41-2.23-3.63s.71-2.19,2.22-3.34Z" transform="translate(-0.4 -0.75)"/></g><g id="596d8363-a457-4577-af86-4bb0cfa682f6" data-name="Tampa Vedaçãoi"><path class="56dc013f-9076-4fe0-97a4-bf8669879a4d" d="M279.33,323.08l2.92,3.5v1h1a7.91,7.91,0,0,0-1.11-4.47Z" transform="translate(-0.4 -0.75)"/><path class="56dc013f-9076-4fe0-97a4-bf8669879a4d" d="M290.86,323l-2.92,3.5v1h-1a7.91,7.91,0,0,1,1.11-4.47Z" transform="translate(-0.4 -0.75)"/><path class="9bf45d5b-030a-4925-b513-e17cef05b9a4" d="M243.7,300l-12.77,0c-.46,0-4.83,6.91-7.24,7.33-1.91.33-5.47-11.68-7.44-13-.41-.26-4.77-.25-5.25-.25,0,.92.08,1.53.08,2.45h.09c.62,6,.14,12.08.27,18.14.12,5.61,2.44,8.2,10.68,7.21a3.74,3.74,0,0,0,.61-.17c1.7-.61,2.38-2.32,3.63-2.74,5.16-1.25,6.11,2.75,8.48,2.89,17,1,32.75,1.47,47.4,1.51v-23.6C271.31,299.95,259.31,300,243.7,300Z" transform="translate(-0.4 -0.75)"/><path class="9bf45d5b-030a-4925-b513-e17cef05b9a4" d="M288.05,323.41c15.58,0,29.75-.6,42.45-1.66V299c-16.72.32-29,.6-42.75.78C287.83,307.67,287.89,315.54,288.05,323.41Z" transform="translate(-0.4 -0.75)"/><path class="9bf45d5b-030a-4925-b513-e17cef05b9a4" d="M360,300.42c0-.84.05-5.91.05-6.75h-.64c-1.94,0-4.48,0-5.25,1.69-1.25,2.75-4.47,11.71-6.25,11.75s-8.1-8.22-9.81-8.19L334,299V321.5c1.54-.73,2-2.75,3.75-3.14,5.19-1.13,6.72,1,8.24,3.37h6.37c4.43-.12,7.06-2.38,7.42-5.61a64.29,64.29,0,0,0,.26-6.73C360.08,304.83,360,303.6,360,300.42Z" transform="translate(-0.4 -0.75)"/><path class="56dc013f-9076-4fe0-97a4-bf8669879a4d" d="M279.63,299.6l2.92-1.69v-.47h1a2.48,2.48,0,0,1-1.11,2.15Z" transform="translate(-0.4 -0.75)"/><path class="56dc013f-9076-4fe0-97a4-bf8669879a4d" d="M290.55,299.61l-2.92-1.69v-.47h-1a2.48,2.48,0,0,0,1.11,2.15Z" transform="translate(-0.4 -0.75)"/></g><g id="068d7349-55d6-489b-a8f9-2003a980f4c9" data-name="Mola"><path id="cc3d22e1-05c4-4ca4-bb8b-8e8ed9ea0802" data-name="FIO POSITIVO" class="5a63e23e-bc78-4229-b8d9-2b11046819b9" d="M269.81,45.56c14.39.55,17.89.55,30.51.19,1,0,.85-1.64,0-1.66-13.44-.34-17.62-.44-30.45-.19C269.36,43.91,269.29,45.54,269.81,45.56Z" transform="translate(-0.4 -0.75)"/><path id="ba528fbf-ac6f-428e-b118-ea8b844059d7" data-name="FIO POSITIVO" class="ce6ecc45-fd92-4c67-827a-cb09af7106d9" d="M270.27,45.49c14.25-1.7,17.68-2.25,30-4.56.95-.18.43-1.74-.39-1.63-13.27,1.76-17.38,2.31-29.91,4.55C269.43,43.95,269.76,45.55,270.27,45.49Z" transform="translate(-0.4 -0.75)"/><path id="95ce821c-2987-4334-9a5b-60c2472fe31a" data-name="FIO POSITIVO" class="bbb08023-d54e-4b14-a87c-bfdb92a6b668" d="M300.15,40.86c-14.25-1.7-17.68-2.25-30-4.56-.95-.18-.43-1.74.39-1.63C283.85,36.43,288,37,300.49,39.22,301,39.31,300.67,40.92,300.15,40.86Z" transform="translate(-0.4 -0.75)"/><path id="8a43e6af-95f2-453f-b8f0-259138bb6c46" data-name="FIO POSITIVO" class="bf068cbe-df46-4373-8903-ab6339573f2c" d="M270.27,36.22c14.25-1.7,17.68-2.25,30-4.56.95-.18.43-1.74-.39-1.63-13.27,1.76-17.38,2.31-29.91,4.55C269.43,34.68,269.76,36.28,270.27,36.22Z" transform="translate(-0.4 -0.75)"/><path id="80afe47f-a71e-4e6c-8d0d-11c2cef82e83" data-name="FIO POSITIVO" class="9f862ce7-ba5a-41ff-81ea-7162a055e398" d="M300.15,31.59c-14.25-1.7-17.68-2.25-30-4.56-.95-.18-.43-1.74.39-1.63C283.85,27.16,288,27.71,300.49,30,301,30,300.67,31.65,300.15,31.59Z" transform="translate(-0.4 -0.75)"/><path id="13717b4f-cd04-4ca6-bf13-ec25d019ff27" data-name="FIO POSITIVO" class="a32e4a4c-a6fb-4310-b36d-0936e822b541" d="M270.27,27.18c14.25-1.7,17.68-2.25,30-4.56.95-.18.43-1.74-.39-1.63-13.27,1.76-17.38,2.31-29.91,4.55C269.43,25.63,269.76,27.24,270.27,27.18Z" transform="translate(-0.4 -0.75)"/><path id="4cfcc177-5129-4f6d-9e94-33ba940d7a73" data-name="FIO POSITIVO" class="b692d454-e927-4983-8c6b-ce47daf49a2d" d="M300.15,22.54c-14.25-1.7-17.68-2.25-30-4.56-.95-.18-.43-1.74.39-1.63,13.27,1.76,17.38,2.31,29.91,4.55C301,21,300.67,22.6,300.15,22.54Z" transform="translate(-0.4 -0.75)"/><path id="fba15d04-b0a4-4c9c-9735-8e5f0f0015ad" data-name="FIO POSITIVO" class="5eb6d491-7eaa-4387-869c-0ec7af466cb8" d="M270.27,17.91c14.25-1.7,17.68-2.25,30-4.56.95-.18.43-1.74-.39-1.63-13.27,1.76-17.38,2.31-29.91,4.55C269.43,16.36,269.76,18,270.27,17.91Z" transform="translate(-0.4 -0.75)"/><path id="22c4e82d-cd71-4dc2-a40f-f87817d2d08d" data-name="FIO POSITIVO" class="2d4bd7dc-33cf-40ab-87e5-586f7f461212" d="M299.81,13.27c-14.25-1.7-17.68-2.25-30-4.56-.95-.18-.43-1.74.39-1.63,13.27,1.76,17.38,2.31,29.91,4.55C300.66,11.73,300.33,13.33,299.81,13.27Z" transform="translate(-0.4 -0.75)"/><path id="5beb5ec5-b2c0-4afa-9a0b-704e3f0e78d2" data-name="FIO POSITIVO" class="e36c8081-4ae5-4bd3-9e63-e9d3e51ed647" d="M269.93,8.64c14.25-1.7,17.68-2.25,30-4.56.95-.18.43-1.74-.39-1.63C286.24,4.21,282.12,4.76,269.59,7,269.08,7.09,269.41,8.7,269.93,8.64Z" transform="translate(-0.4 -0.75)"/><path id="c1a7d4ce-f1c8-44fb-98d7-82b190a44e30" data-name="FIO POSITIVO" class="b86c1a99-2ea1-44e0-9282-3dc79e199d08" d="M269.46,3.8c14.39.55,17.89.55,30.51.19,1,0,.85-1.64,0-1.66-13.44-.34-17.62-.44-30.45-.19C269,2.15,268.94,3.78,269.46,3.8Z" transform="translate(-0.4 -0.75)"/></g></svg>